<?xml version="1.0" encoding="utf-8"?>
<!-- Generator: Adobe Illustrator 19.2.0, SVG Export Plug-In . SVG Version: 6.00 Build 0)  -->
<svg version="1.1" id="Layer_1" xmlns="http://www.w3.org/2000/svg" xmlns:xlink="http://www.w3.org/1999/xlink" x="0px" y="0px"
	 viewBox="0 0 154.7 10.8" style="enable-background:new 0 0 154.7 10.8;" xml:space="preserve">
<style type="text/css">
	.st0{fill:#2C2624;}
	.st1{fill:#CD1420;}
	.st2{fill:#2A2522;}
	.st3{fill-rule:evenodd;clip-rule:evenodd;fill:#CD1420;}
</style>
<g>
	<path class="st0" d="M5.6,9.2L5.1,7.9H1.7L1.1,9.2H0l3.2-7.5h0.4l3.2,7.5H5.6z M3.7,4.6C3.6,4.3,3.5,4,3.4,3.7h0
		C3.3,4,3.1,4.3,3,4.6L2.1,7h2.6L3.7,4.6z"/>
	<polygon class="st1" points="13.3,9.2 10.3,5.6 10.3,9.2 9.1,9.2 9.1,1.8 10.3,1.8 10.3,5.5 13.3,1.8 14.7,1.8 11.6,5.5 14.7,9.2 	
		"/>
	<path class="st0" d="M27.2,9.4c-0.8,0-1.5-0.2-1.9-0.5L25,7.6c0.7,0.5,1.4,0.8,2.2,0.8c0.8,0,1.4-0.5,1.4-1.2
		c0-0.6-0.4-1.1-1.3-1.4c-1.3-0.4-2-1.2-2-2.2c0-1,0.8-2,2.4-2c0.7,0,1.4,0.2,1.6,0.4L29.1,3c-0.3-0.2-0.8-0.4-1.4-0.4
		c-0.8,0-1.2,0.5-1.2,1c0,0.5,0.4,0.9,1.2,1.2c1.3,0.4,2.2,1.1,2.2,2.4C29.8,8.5,28.9,9.4,27.2,9.4"/>
	<polygon class="st0" points="37.3,9.2 37.3,6 33.5,6 33.5,9.2 32.4,9.2 32.4,1.8 33.5,1.8 33.5,5 37.3,5 37.3,1.8 38.5,1.8 
		38.5,9.2 	"/>
	<rect x="41.8" y="1.8" class="st0" width="1.1" height="7.4"/>
	<path class="st0" d="M21.9,9.2l-0.6-1.3H18l-0.6,1.3h-1.1l3.2-7.5h0.4l3.2,7.5H21.9z M20,4.6c-0.1-0.2-0.2-0.6-0.3-0.9h0
		c-0.1,0.3-0.2,0.7-0.3,0.9l-1,2.4H21L20,4.6z"/>
	<path class="st2" d="M52.3,9.4c-0.8,0-1.5-0.2-1.9-0.5l-0.3-1.2c0.7,0.5,1.4,0.8,2.2,0.8c0.8,0,1.4-0.5,1.4-1.2
		c0-0.6-0.4-1.1-1.3-1.4c-1.3-0.4-2-1.2-2-2.2c0-1,0.8-2,2.4-2c0.7,0,1.4,0.2,1.6,0.4L54.2,3c-0.3-0.2-0.8-0.4-1.5-0.4
		c-0.8,0-1.2,0.5-1.2,1c0,0.5,0.4,0.9,1.2,1.2c1.3,0.4,2.2,1.1,2.2,2.4C54.9,8.5,54,9.4,52.3,9.4"/>
	<polygon class="st2" points="73.5,9.2 73.5,1.8 77.5,1.8 77.5,2.7 74.7,2.7 74.7,5 77.1,5 77.1,6 74.7,6 74.7,8.3 78,8.3 78,9.2 	
		"/>
	<path class="st2" d="M88.2,9.2h-2.4V1.8h2.1c1,0,2.1,0.6,2.1,2c0,0.6-0.3,1.1-0.7,1.3C90,5.2,90.7,6,90.7,7
		C90.7,8.5,89.4,9.2,88.2,9.2 M87.7,2.7h-0.8v2h0.8c0.6,0,1.1-0.3,1.1-1C88.8,3,88.3,2.7,87.7,2.7 M88,5.7h-1.1v2.6H88
		c0.8,0,1.5-0.4,1.5-1.3C89.5,6.1,88.8,5.7,88,5.7"/>
	<path class="st2" d="M97.7,9.2L95.3,6h-1.1v3.3h-1.1V1.8h2.4c1.1,0,2.3,0.7,2.3,2.1c0,1-0.6,1.6-1.3,1.9L99,9.2H97.7z M95.3,2.7h-1
		V5h1c0.7,0,1.3-0.4,1.3-1.1C96.6,3.1,96,2.7,95.3,2.7"/>
	<polygon class="st2" points="100.9,9.2 100.9,1.8 104.9,1.8 104.9,2.7 102,2.7 102,5 104.5,5 104.5,6 102,6 102,8.3 105.3,8.3 
		105.3,9.2 	"/>
	<path class="st2" d="M114.5,9.4h-0.4l-1.4-4c-0.2-0.6-0.4-1.2-0.6-2h0c-0.2,0.8-0.4,1.4-0.6,2l-1.4,4h-0.4L107,1.8h1.1l1.2,3.4
		c0.2,0.5,0.4,1.1,0.6,1.7h0c0.2-0.6,0.4-1.2,0.5-1.7l1.2-3.4h1l1.2,3.4c0.2,0.5,0.4,1.1,0.5,1.7h0c0.1-0.6,0.4-1.2,0.6-1.7l1.2-3.4
		h1L114.5,9.4z"/>
	<polygon class="st2" points="119.4,9.2 119.4,1.8 123.4,1.8 123.4,2.7 120.5,2.7 120.5,5 123,5 123,6 120.5,6 120.5,8.3 123.8,8.3 
		123.8,9.2 	"/>
	<path class="st2" d="M130.6,9.2L128.3,6h-1.1v3.3h-1.1V1.8h2.4c1,0,2.2,0.7,2.2,2.1c0,1-0.6,1.6-1.3,1.9l2.6,3.5H130.6z M128.3,2.7
		h-1V5h1c0.7,0,1.3-0.4,1.3-1.1C129.6,3.1,128.9,2.7,128.3,2.7"/>
	<path class="st2" d="M136.5,5.8v3.4h-1.1V5.8l-2.9-4h1.2l1.5,2.1c0.2,0.3,0.5,0.7,0.7,1.1h0c0.2-0.3,0.5-0.8,0.7-1.1l1.5-2.1h1.2
		L136.5,5.8z"/>
	<polygon class="st2" points="69.7,9.3 66.6,5.6 66.6,9.3 65.5,9.3 65.5,1.8 66.6,1.8 66.6,5.5 69.7,1.8 71.1,1.8 67.9,5.5 
		71.1,9.3 	"/>
	<path class="st0" d="M62.1,9.3L61.6,8h-3.4l-0.6,1.3h-1.1l3.2-7.6h0.4l3.2,7.6H62.1z M60.2,4.6C60.1,4.4,60,4,59.9,3.7h0
		c-0.1,0.3-0.2,0.7-0.3,0.9l-1,2.4h2.6L60.2,4.6z"/>
	<path class="st3" d="M154.6,0.6c0,0,0,0.1,0,0.1c0,0,0,0,0,0c0,0.1-0.1,0.1,0,0.2c0,0,0,0,0,0.1c0,0,0,0.1,0,0.2c0,0,0,0.1,0,0.1
		c0,0,0,0,0,0c0,0,0,0,0,0.1c0,0.1,0,0.1,0,0.2c0,0,0,0,0,0c0,0.1,0,0.1,0,0.2c0,0,0,0,0,0.1c0,0.2,0,0.5,0,0.7c0,0,0,0.1,0,0.1
		c0,0,0,0.1,0,0.1c0,0,0,0.1,0,0.1c0,0,0,0,0,0c0,0,0,0.1,0,0.1c0,0.1,0,0.1,0,0.2v0.2v0.2v0.2c0,0,0,0.1,0,0.1c0,0,0,0,0,0.1
		c0,0,0,0.1,0,0.1c0,0,0,0,0,0.1c0,0,0,0.1,0,0.1c-0.1,0.1,0,0.1,0,0.2c0,0.1,0,0.1,0,0.2c-0.1,0,0,0.1,0,0.2c0,0.1,0,0.1,0,0.2
		c0,0,0,0.1,0,0.1c0,0,0,0.1,0,0.1c0,0,0,0.1,0,0.1c0,0,0,0.1,0,0.1c0,0,0,0,0,0c0,0.1,0,0.2,0,0.3c0,0,0,0.1,0,0.1c0,0,0,0.1,0,0.1
		c0,0,0,0,0,0c0,0.1,0,0.1,0,0.2c0,0.1,0,0.1,0,0.2c0,0,0,0,0,0c0,0,0,0.1,0,0.1c0,0,0,0.1,0,0.1c0,0.1,0,0.2,0,0.2c0,0,0,0,0,0.1
		c0,0,0,0.1,0,0.1c0,0,0,0,0,0c0,0.1,0,0.2,0,0.2c0,0,0,0,0,0c0,0,0,0.1,0,0.1c0,0.1,0,0.1,0,0.3c0,0,0,0.1,0,0.1c0,0.1,0,0.1,0,0.2
		c0,0.1,0,0.1,0,0.2c0,0.1,0,0.1,0,0.2c0,0,0,0.1,0,0.1c0,0,0,0,0,0.1c0,0,0,0,0,0c0,0.1,0,0.2,0,0.2c0,0.1,0,0.1,0,0.2
		c0,0,0,0.1,0,0.1c0,0,0,0,0,0c0,0.1,0,0.1,0,0.2c0,0,0,0,0,0.1c0,0,0,0.1,0,0.1c0,0,0,0.1,0,0.1c0,0.1,0,0.1,0,0.2c0,0,0,0.1,0,0.1
		c0,0,0,0,0,0c0,0.2,0,0.3,0,0.5c0,0,0,0.1,0,0.1c0,0,0,0,0,0c0,0,0,0,0,0.1c0,0,0,0.1,0,0.1c0,0,0,0.1,0,0.1c0,0,0,0,0,0
		c-0.1,0-0.1,0.1-0.1,0.1c0,0-0.1,0.1-0.1,0.1c0,0,0,0,0,0c-0.1,0-0.1,0-0.2,0c-0.1,0-0.1,0-0.2,0c0,0,0,0-0.1,0c0,0,0,0-0.1,0
		c0,0,0,0,0,0c-0.1,0-0.2,0-0.2,0c0,0-0.1,0-0.1,0c0,0-0.1,0-0.1,0c0,0-0.1,0-0.1,0c0,0,0,0,0,0c0,0-0.1,0-0.1,0c0,0-0.1,0-0.1,0
		c0,0-0.1,0-0.1,0c0,0,0,0,0,0c-0.1,0-0.1,0-0.2,0c-0.1,0-0.1,0-0.1-0.1c0,0,0,0,0,0c0,0,0,0,0,0c-0.1,0-0.1,0-0.1,0.1
		c0,0.1,0,0.1-0.1,0.1c0,0-0.1,0-0.2,0c0,0-0.1,0-0.1,0c0,0-0.1,0-0.1,0c0,0-0.1,0-0.1,0c0,0-0.1,0-0.1,0c-0.1,0-0.2,0-0.3,0
		c-0.2,0-0.5,0-0.7,0c-0.1,0-0.1,0-0.2,0c-0.1,0-0.2,0-0.3,0c0,0-0.1,0-0.1,0c-0.1,0-0.2,0-0.2,0c0,0,0,0,0,0c0,0,0,0,0,0
		c0,0,0,0,0,0c0,0,0,0,0,0c0,0,0,0,0,0c0,0,0,0,0,0c0,0-0.1,0-0.1,0c0,0-0.1,0-0.1,0c0,0-0.1,0-0.1,0c-0.1,0-0.1,0-0.1,0
		c0,0-0.1,0-0.1,0c0,0,0,0,0,0c0,0-0.1-0.1-0.1,0c0,0-0.1,0-0.1,0c0,0-0.1,0-0.1,0h-0.1h-0.1h-0.1h-0.1c0,0-0.1,0-0.1,0
		c-0.1,0-0.2,0-0.3,0c0,0,0,0-0.1,0c0-0.1-0.1,0-0.1,0c-0.1,0-0.1,0-0.2,0c0,0,0,0-0.1,0c0,0,0,0-0.1,0c0,0,0,0-0.1,0c0,0,0,0-0.1,0
		c-0.1,0-0.2,0-0.3,0c0,0,0,0,0,0c0,0-0.1,0-0.1,0c0,0-0.1,0-0.1,0c0,0-0.1,0-0.1,0c0,0-0.1,0-0.1,0c0,0,0,0-0.1,0c0,0,0,0-0.1,0
		c0,0-0.1,0-0.1,0c-0.1,0-0.1,0-0.2,0c0,0,0,0,0,0c0,0-0.1,0-0.2,0c-0.1,0-0.1,0-0.3,0c0,0,0,0,0,0c-0.1,0-0.2,0-0.4,0
		c0,0-0.1,0-0.1,0c0,0-0.1,0-0.1,0c0,0-0.1,0-0.1,0c0,0,0,0-0.1,0c0,0,0,0-0.1,0c-0.1,0-0.1,0-0.2,0c0,0,0,0,0,0c0,0,0,0-0.1,0
		c0,0,0,0-0.1,0c-0.1,0-0.1,0-0.2,0c0,0-0.1,0-0.1,0c0,0-0.1,0-0.1,0c0,0-0.1-0.1-0.1-0.1c0,0,0-0.1-0.1-0.1c0,0,0,0,0,0
		c0-0.1-0.1-0.1,0-0.2c0,0,0,0,0-0.1c0-0.1,0-0.1,0-0.2c0,0,0-0.1,0-0.1c0-0.1,0-0.2,0-0.3c0-0.1,0-0.2,0-0.3c0-0.2,0-0.3,0-0.5
		c0,0,0-0.1,0-0.1c0,0,0-0.1,0-0.1c0,0,0,0,0-0.1c0,0,0,0,0,0c0-0.1,0-0.1,0-0.1c0,0,0-0.1,0-0.1c0-0.1,0-0.1,0-0.2
		c0-0.1,0-0.1,0-0.2c0,0,0,0,0-0.1c0,0,0-0.1,0-0.1c-0.1,0-0.1-0.1-0.1-0.2c0,0,0-0.1,0-0.1c0-0.1,0-0.1,0-0.2c0-0.1,0-0.1,0-0.2
		c0-0.1,0-0.2,0-0.2c0-0.1,0-0.1,0-0.2c0,0,0,0,0,0c0,0,0-0.1,0-0.1c0,0,0-0.1,0-0.1c0,0,0,0,0,0c0-0.1,0-0.1,0-0.2c0,0,0-0.1,0-0.2
		c0-0.1,0-0.1,0-0.2c0,0,0,0,0-0.1c0-0.1,0-0.2,0-0.3c0-0.1,0-0.2,0-0.3c0,0,0-0.1,0-0.1c0,0,0-0.1,0-0.1c0,0,0,0,0,0
		c0,0,0-0.1,0-0.1c0-0.1,0-0.1,0-0.2c0-0.1,0-0.2,0-0.3c0,0,0-0.1,0-0.1c0-0.1,0-0.1,0-0.2c0,0,0-0.1,0-0.1c0,0,0-0.1,0-0.1
		c0,0,0,0,0-0.1c0,0,0-0.1,0-0.1c0,0,0,0,0,0c0-0.1,0-0.2,0-0.2c0,0,0-0.1,0-0.1c0,0,0-0.1,0-0.1c0-0.2,0-0.3,0-0.5c0,0,0-0.1,0-0.1
		c0,0,0-0.1,0-0.1c0,0,0,0,0-0.1c0,0,0,0,0,0c0-0.1,0-0.1,0-0.2c0,0,0-0.1,0-0.1c0,0,0-0.1,0-0.1c0,0,0,0,0,0c0,0,0-0.1,0-0.1
		c0-0.1,0-0.1,0-0.2c0-0.1,0-0.1,0-0.2c0,0,0-0.1,0-0.2c0,0,0,0,0-0.1c0-0.1,0-0.2,0-0.2c0,0,0,0,0,0c0-0.1,0-0.3,0-0.4
		c0,0,0,0,0-0.1c0,0,0.1-0.1,0.1-0.1c0,0,0.1-0.1,0.1-0.1c0,0,0,0,0,0c0.1,0.1,0.2,0,0.3,0c0,0,0,0,0.1,0c0,0,0.1,0,0.1,0
		c0,0,0.1,0,0.1,0c0,0,0,0,0.1,0h0.2c0.1,0,0.1,0,0.2,0c0,0,0,0,0.1,0c0,0,0.1,0,0.1,0c0.1,0,0.1,0,0.2,0c0,0,0,0,0.1,0
		c0.1,0,0.1,0,0.2,0c0.1,0,0.1,0,0.2,0c0.1,0,0.1,0,0.2,0c0,0,0,0,0,0c0,0,0.1,0,0.1,0c0,0,0.1,0.1,0.1,0c0,0,0.1,0,0.1,0
		c0,0,0.1,0,0.1,0c0,0,0.1,0,0.1,0c0,0,0,0,0,0c0,0,0.1-0.1,0.1,0c0,0,0.1,0,0.1,0c0.1,0,0.1,0,0.2,0c0,0,0.1,0,0.1,0c0,0,0,0,0,0
		c0,0,0.1,0.1,0.1,0c0,0,0,0,0.1,0c0,0,0.1,0,0.1,0c0,0,0,0,0.1,0c0,0,0.1,0,0.1,0c0,0,0.1,0,0.1,0c0,0,0,0,0,0c0,0,0,0,0.1,0
		c0,0,0.1,0,0.1,0c0,0,0.1,0,0.1,0h0.1c0,0,0.1,0,0.1,0c0,0,0.1,0,0.1,0c0,0,0,0,0,0c0,0,0,0,0,0c0,0,0,0,0,0c0,0,0,0,0.1,0
		c0.1,0,0.1,0,0.2,0c0,0,0.1,0,0.1,0c0.1,0,0.2,0,0.2,0c0.1,0,0.2,0,0.3,0c0,0,0.1,0,0.1,0c0,0,0,0,0.1,0c0,0,0,0,0,0c0,0,0,0,0,0
		c0,0,0.1,0,0.1,0c0,0,0,0,0.1,0c0,0,0,0,0.1,0c0,0,0.1,0,0.1,0c0.1,0,0.2,0,0.2,0c0,0,0.1,0,0.1,0c0,0,0,0,0.1,0c0,0,0,0,0.1,0
		c0,0,0,0,0.1,0c0,0,0.1,0,0.1,0c0.1,0,0.2,0,0.3-0.1c0,0,0,0,0,0c0,0,0,0,0,0c0,0,0,0,0,0c0,0,0.1,0,0.1,0c0,0,0,0,0,0
		c0.1,0,0.1,0,0.1,0c0,0,0,0.1,0,0c0,0,0,0,0.1,0c0,0,0.1,0.1,0.1,0c0,0,0,0,0.1,0c0.1,0,0.1,0,0.2,0c0.1,0,0.1,0,0.2,0c0,0,0,0,0,0
		c0.1,0,0.2,0,0.2,0c0.1,0,0.1,0,0.2,0c0,0,0.1,0,0.1,0c0,0,0.1,0,0.1,0c0.1,0,0.1,0,0.2,0c0.1,0,0.1,0,0.2,0c0,0,0.1,0,0.1,0
		c0,0,0.1,0,0.1,0c0.1,0,0.1,0,0.2,0c0.1,0,0.1,0,0.1,0c0,0,0.1,0.1,0.1,0c0,0,0.1,0,0.1,0c0,0,0,0,0,0c0,0,0.1,0,0.1,0
		c0.1,0,0.2,0,0.3,0c0,0,0,0,0.1,0c0,0,0.1,0,0.1,0c0,0,0,0.1,0,0.1c0,0,0,0,0,0c0,0,0,0,0,0c0,0,0,0,0,0c0,0,0,0,0,0
		c0,0,0,0.1,0,0.1C154.6,0.5,154.6,0.5,154.6,0.6 M154.3,1.1c0-0.1,0-0.1,0-0.2c0-0.1,0-0.1-0.1-0.2c0,0-0.1-0.1-0.1-0.1
		c0,0-0.1,0-0.1,0c-0.1,0-0.1,0-0.2,0c0,0-0.1,0-0.1,0c0,0-0.1,0-0.1,0c0,0-0.1,0-0.1,0c0,0-0.1,0-0.1,0c0,0,0,0-0.1,0
		c0,0,0,0-0.1,0c-0.1,0-0.1,0-0.2,0c0,0-0.1,0-0.1,0c0,0-0.1,0-0.1,0c-0.1,0-0.2,0-0.3,0c0,0,0,0-0.1,0c-0.1,0-0.1,0-0.2,0
		c0,0-0.1,0-0.1,0c-0.1,0-0.2,0-0.3,0c0,0,0,0,0,0c0,0,0,0-0.1,0c0,0-0.1,0-0.1,0c0,0-0.1,0-0.1,0H151c0,0,0,0-0.1,0
		c0,0-0.1,0-0.1,0c0,0-0.1,0-0.1,0c0,0-0.1,0-0.1,0c0,0-0.1,0-0.1,0c0,0-0.1,0-0.1,0c0,0-0.1,0-0.1,0c0,0,0,0,0,0c0,0,0,0-0.1,0
		c0,0-0.1,0.1-0.1,0c0,0-0.1,0-0.1,0c0,0,0,0-0.1,0c0,0-0.1,0-0.1-0.1c0,0,0,0,0,0c0,0,0,0,0,0c0,0,0,0,0,0c0,0,0,0-0.1,0
		c0,0-0.1,0-0.1-0.1c0,0,0,0,0,0c0,0,0,0,0,0c0,0,0,0,0,0.1c0,0-0.1,0-0.1,0c0,0-0.1,0.1-0.1,0c0,0,0,0,0,0c-0.1,0-0.1-0.1-0.2,0
		c0,0-0.1,0-0.1,0c0,0,0,0-0.1,0c0,0,0,0-0.1,0c-0.1,0-0.2,0-0.3,0c0,0,0,0,0,0c0,0-0.1,0-0.1,0c0,0-0.1,0-0.1,0c0,0-0.1,0-0.1,0
		c-0.1,0-0.1,0-0.2,0c0,0-0.1,0-0.1,0c0,0,0,0-0.1,0c0,0,0,0-0.1,0c-0.1,0-0.2,0-0.2,0c0,0,0,0,0,0c0,0-0.1,0-0.1,0
		c-0.2,0-0.4,0-0.6,0c0,0-0.1,0-0.1,0c0,0,0,0-0.1,0c0,0,0,0-0.1,0c0,0-0.1,0-0.1,0c0,0-0.1,0-0.1,0c0,0-0.1,0-0.1,0
		c0,0-0.1,0-0.1,0c0,0,0,0,0,0c0,0-0.1,0-0.1,0c0,0-0.1,0-0.1,0c-0.1,0-0.2,0-0.2,0c0,0,0,0-0.1,0c-0.1,0-0.1,0-0.2,0
		c-0.1,0-0.1,0-0.2,0c0,0,0,0,0,0c-0.1,0-0.2,0-0.2,0c0,0-0.1,0-0.1,0c-0.1,0-0.1,0-0.2,0c0,0-0.1,0-0.1,0c-0.1,0-0.1,0-0.2,0
		c0,0-0.1,0-0.1,0c0,0.1-0.1,0.1-0.1,0.1c0,0,0,0,0,0c0,0,0,0,0,0c0,0,0,0.1,0,0.1c0,0,0,0,0,0c0,0.1,0,0.1,0,0.2c0,0,0,0.1,0,0.1
		c0,0,0,0.1,0,0.1c0,0.1,0,0.1,0,0.2c0,0,0,0.1,0,0.1c0,0,0,0.1,0,0.1c0,0,0,0.1,0,0.1c0,0,0,0.1,0,0.1c0,0,0,0.1,0,0.1v0.1
		c-0.1,0,0,0.1,0,0.1c0,0,0,0.1,0,0.1c0,0,0,0.1,0,0.1c0,0,0,0.1,0,0.1c0,0.1,0,0.1,0,0.2v0.4c0,0,0,0.1,0,0.1c0,0,0,0,0,0.1
		c0,0,0,0.1,0,0.1c0,0,0,0.1,0,0.1c0,0.1,0,0.2,0,0.4c0,0.1,0,0.1,0,0.2c0,0,0,0,0,0c0,0.1,0,0.1,0,0.2c0,0.1,0,0.1,0,0.2
		c0,0,0,0.1,0,0.1c0,0,0,0.1,0,0.1c0,0.1,0,0.1,0,0.2c0,0.1,0,0.1,0,0.2c0,0.1,0,0.3,0,0.4c0,0,0,0.1,0,0.1c0,0,0,0,0,0
		c0,0.1,0,0.1,0,0.2c0,0.1,0,0.1,0,0.2c0,0.1,0,0.1,0,0.1c0,0.1,0,0.2,0,0.3c0,0,0,0.1,0,0.1c0,0,0,0.1,0,0.1c0,0.1,0,0.2,0,0.2
		c0,0.1,0,0.2,0,0.2c0,0,0,0,0,0c0,0,0,0.1,0,0.2c0,0,0,0.1,0,0.1c0,0,0,0.1,0,0.1c0,0,0,0.1,0,0.1c0,0,0,0.1,0,0.1c0,0,0,0.1,0,0.1
		c0,0,0,0,0,0c0,0,0,0.1,0,0.1c0,0.1,0,0.1,0,0.2c0,0,0,0,0,0.1c0,0.1,0,0.2,0,0.3c0,0,0,0,0,0.1c0,0,0,0,0,0c0,0.1,0,0.1,0,0.2
		c0,0,0,0,0,0.1c0,0.1,0,0.1,0,0.2c0,0,0,0.1,0,0.1c0,0,0,0.1,0,0.1c0,0,0,0,0,0c0,0.1,0,0.3,0,0.4c0,0,0,0,0,0c0,0,0,0.1,0,0.1
		c0,0,0,0.1,0,0.1c0,0,0,0.1,0.1,0.1c0,0,0,0,0,0c0.1,0.1,0.1,0.1,0.2,0.1c0.1,0,0.1,0,0.3,0c0,0,0.1,0,0.1,0c0.1,0,0.1,0,0.2,0
		c0,0,0.1,0,0.1,0c0,0,0.1,0,0.1,0c0.1,0,0.1,0,0.2,0c0.1,0,0.1,0,0.2,0c0,0,0.1,0,0.1,0c0.1,0,0.1,0,0.2,0c0.1,0,0.1,0,0.1,0
		c0,0,0,0,0,0c0,0,0.1,0,0.1,0c0,0,0.1,0,0.1,0c0,0,0.1,0,0.1,0c0,0,0.1,0,0.1,0c0.1,0,0.2,0,0.3,0c0,0,0.1,0,0.1,0c0,0,0,0,0,0
		c0,0,0.1,0,0.1,0c0,0,0.1,0,0.1,0c0,0,0,0,0,0c0,0,0,0,0.1,0c0,0,0,0,0.1,0c0.1,0,0.1,0,0.2,0c0,0,0.1,0,0.1,0c0.1,0,0.1,0,0.2,0
		c0,0,0,0,0,0c0,0,0,0,0,0c0,0,0.1,0,0.1,0c0,0,0.1,0,0.1,0c0,0,0,0,0,0c0,0,0.1,0,0.2,0c0.2,0,0.4,0,0.6,0c0,0,0,0,0.1,0
		c0,0,0.1,0,0.2,0c0.1,0,0.1,0,0.2,0c0,0,0,0,0,0c0,0,0.1,0,0.1,0c0.2,0,0.3,0,0.5,0c0,0,0.1,0,0.1,0c0,0,0.1,0,0.1,0
		c0,0,0.1,0,0.1,0c0,0,0,0,0,0c0.1,0.1,0.2,0,0.3,0c0,0,0.1,0,0.1,0c0,0,0.1,0,0.1,0c0,0,0.1,0,0.1,0h0c0,0,0.1,0,0.1,0
		c0,0,0,0,0.1,0c0,0,0.1,0,0.1,0c0,0,0.1,0,0.1,0c0.1,0,0.1,0,0.2,0c0,0,0.1,0,0.1,0c0.1,0,0.1,0,0.2,0c0.1,0,0.2,0,0.3,0
		c0,0,0.1,0,0.1,0c0,0,0.1,0,0.1,0c0,0,0.1,0,0.1,0c0,0,0.1,0,0.1,0c0,0,0.1,0,0.1,0c0,0,0.1,0,0.2,0c0,0,0.1,0,0.1,0
		c0.1,0,0.1,0,0.2,0c0.1,0,0.1,0,0.2,0c0.1,0,0.1,0,0.2,0c0,0,0,0,0.1,0c0,0,0-0.1,0.1,0c0.1-0.1,0.1-0.1,0.1-0.2c0,0,0-0.1,0-0.1
		c0-0.1,0-0.1,0-0.2c0,0,0-0.1,0-0.1c0,0,0-0.1,0-0.1c0-0.1,0-0.1,0-0.2c0-0.1,0-0.1,0-0.2c0-0.1,0.1-0.1,0-0.2c0-0.1,0-0.2,0-0.3
		c0,0,0-0.1,0-0.1c0,0,0-0.1,0-0.1c0,0,0-0.1,0-0.1c0,0,0,0,0-0.1c0-0.1,0-0.1,0-0.2c0-0.2,0-0.3,0-0.5c0,0,0,0,0-0.1
		c0,0,0-0.1,0-0.1c0,0,0-0.1,0-0.1c0,0,0,0,0,0c0,0,0-0.1,0-0.1c0,0,0-0.1,0-0.1c0-0.2,0-0.4,0-0.6c0,0,0-0.1,0-0.1c0,0,0-0.1,0-0.1
		c0,0,0-0.1,0-0.1c0,0,0-0.1,0-0.1c0-0.1,0-0.2,0-0.3c0-0.1,0-0.2,0-0.3c0,0,0-0.1,0-0.1c0,0,0-0.1,0-0.1c0,0,0,0,0,0
		c0,0,0-0.1,0-0.1c0,0,0-0.1,0-0.1c0,0,0-0.1,0-0.1c0-0.1,0-0.3,0-0.4c0,0,0,0,0,0c0,0,0,0,0,0c0,0,0-0.1,0-0.1c0,0,0-0.1,0-0.1
		c0,0,0,0,0-0.1c0,0,0-0.1,0-0.1c0,0,0-0.1,0-0.1c0-0.1,0-0.1,0-0.3c0-0.1,0-0.1,0-0.2c0,0,0-0.1,0-0.1c0,0,0-0.1,0-0.1
		c0-0.1,0-0.1,0-0.2c0,0,0-0.1,0-0.1c0-0.1,0-0.2,0-0.3c0,0,0,0,0,0c0,0,0,0,0,0c0,0,0,0,0-0.1c0-0.1,0-0.1,0-0.2c0,0,0-0.1,0-0.1
		c0,0,0-0.1,0-0.2c0,0,0,0,0,0V1.8c0-0.1,0-0.2,0-0.3C154.3,1.4,154.3,1.3,154.3,1.1C154.2,1.2,154.3,1.2,154.3,1.1
		C154.3,1.2,154.3,1.2,154.3,1.1 M149.5,0.4L149.5,0.4C149.5,0.4,149.5,0.4,149.5,0.4C149.4,0.4,149.4,0.4,149.5,0.4
		C149.4,0.5,149.4,0.5,149.5,0.4C149.5,0.5,149.5,0.4,149.5,0.4"/>
	<path class="st3" d="M146.6,6.5c0,0.1,0,0.1,0,0.2c0,0,0,0-0.1,0.1c0,0-0.1,0.1-0.1,0.1c0,0-0.1,0-0.1,0c0,0-0.1,0-0.1,0
		c0,0,0,0,0,0c0-0.1-0.1,0-0.1,0c-0.1,0-0.1,0-0.2,0c-0.1,0-0.2,0-0.3,0c-0.1,0-0.1,0-0.2,0c0,0,0,0,0,0c0,0,0,0-0.1,0c0,0,0,0,0,0
		c0,0,0,0-0.1,0c0,0,0,0-0.1,0c0,0-0.1,0-0.1,0c0,0-0.1,0-0.1,0c0,0-0.1-0.1-0.1-0.1c0,0-0.1,0-0.1-0.1c0,0,0-0.1,0-0.1
		c0,0,0,0,0-0.1c0,0,0,0,0-0.1c0-0.1,0-0.2,0-0.3c0-0.1,0-0.1,0-0.2c0,0,0-0.1,0-0.1c0,0,0,0,0,0c0-0.1,0-0.1,0-0.2
		c0-0.1,0-0.1,0-0.2c0-0.1,0.1-0.2,0-0.3c0,0,0-0.1,0-0.1c0-0.2,0.1-0.3,0.2-0.4c0,0,0,0,0,0c0.1,0,0.2-0.1,0.3-0.1
		c0,0,0.1,0,0.1-0.1c0,0,0,0,0-0.1c0-0.1,0-0.1-0.1-0.1c0,0-0.1,0-0.1,0c-0.1,0-0.2,0-0.3,0c-0.1,0-0.2-0.1-0.2-0.1c0,0,0-0.1,0-0.1
		c0,0,0.1-0.1,0.1-0.1c0,0,0.1,0,0.1,0c0.1,0,0.1,0,0.2,0c0,0,0.1,0,0.1,0c0.1,0,0.2-0.1,0.3-0.1c0,0,0,0,0,0c0,0,0.1,0,0.1,0
		c0,0,0.1,0,0.1,0c0,0,0.1,0,0.1,0c0,0,0,0,0.1,0c0-0.1,0.1,0,0.2,0c0,0,0.1,0,0.1,0.1c0,0,0.1,0,0.1,0c0,0,0.1,0,0.1,0
		c0,0,0,0,0.1,0c0,0,0.1,0,0.1,0c0,0,0,0.1,0.1,0.1c0,0,0.1,0,0.1,0c0.1-0.1,0.1-0.1,0.2,0c0,0,0,0,0.1,0c0,0,0.1,0,0.1,0
		c0,0,0.1,0,0.1,0c0.1,0,0.2,0,0.3-0.1c0,0,0,0,0.1,0c0.1,0,0.1,0,0.2,0c0.1,0,0.1-0.1,0.1-0.1c0,0,0,0,0-0.1c0,0,0.1-0.1,0.1,0
		c0,0,0,0,0.1,0c0,0,0.1,0,0.1,0c0.1,0.1,0.1,0.1,0.2,0.2c0,0,0.1,0.1,0.1,0c0,0,0.1,0,0.2,0c0.1,0,0.1,0,0.2,0c0,0,0,0,0,0
		c0.1,0,0.1,0,0.2,0c0.1,0,0.1,0,0.2,0c0,0,0,0,0,0c0.1,0,0.2,0,0.3,0c0,0,0.1,0.1,0.1,0.1c0,0,0,0.1,0,0.1c0,0-0.1,0.1-0.1,0.1
		c0,0-0.1,0-0.2,0c-0.1-0.1-0.1,0-0.2,0c0,0-0.1,0-0.1,0c-0.1,0-0.1,0-0.2,0c0,0,0,0,0,0c0,0,0,0,0,0c0,0,0,0,0,0
		c0.1,0,0.1,0.1,0.2,0.1c0,0,0.1,0,0.1,0c0,0,0.1,0,0.1,0c0.1,0,0.1,0,0.2,0c0,0,0.1,0,0.1,0c0,0,0.1,0,0.1,0c0,0,0,0.1,0,0.1
		c0,0,0,0,0,0c0,0-0.1,0.1-0.1,0.1c0,0-0.1,0-0.1,0c0,0-0.1,0-0.1,0c0,0,0,0,0,0c0,0,0,0.1,0,0.1c0,0,0,0.1,0,0.1c0,0,0,0-0.1,0.1
		c0,0,0,0,0,0c0,0-0.1,0-0.1,0c0,0-0.1,0-0.1,0c0,0-0.1,0-0.1,0c0,0,0,0,0,0.1c0,0,0,0,0.1,0c0,0,0.1,0,0.1,0c0,0,0.1,0,0.1,0
		c0,0,0,0,0,0.1c0,0,0,0,0,0c-0.1,0-0.1,0-0.2,0c0,0-0.1,0.1-0.1,0.1c0,0,0,0,0,0c0,0,0,0,0,0c0,0,0.1,0,0.1,0c0,0,0.1,0,0.1,0
		c0,0,0,0,0,0c0.1,0,0.2,0,0.2,0c0,0,0.1,0,0.1,0c0,0,0.1,0.1,0.1,0.1c0,0.1-0.1,0.1-0.1,0.1c0,0-0.1,0-0.1,0c0,0-0.1,0-0.1,0.1
		c0,0,0,0.1,0,0.1c0,0.1,0,0.1,0,0.2c0,0,0,0-0.1,0c-0.1,0-0.1,0-0.2,0c0,0-0.1,0-0.1,0c0,0-0.1,0-0.1,0c0,0-0.1,0-0.1,0
		c-0.1,0.1-0.1,0.1,0,0.1c0,0,0.1,0,0.1,0.1c0,0,0.1,0,0.1,0c0,0,0,0,0.1,0c0.1,0,0.2,0.1,0.3,0.1c0,0,0.1,0,0.2,0
		c0.1,0,0.1,0,0.2,0c0,0,0,0,0,0c0.1,0.1,0.1,0,0.2,0c0.1,0,0.2-0.1,0.2-0.2c0,0,0,0,0,0c0.1-0.1,0.2-0.2,0.3-0.3
		c0-0.1,0.1-0.1,0.1-0.2c0,0,0-0.1,0-0.1c0,0,0,0,0,0c0-0.1,0-0.2,0-0.3c0,0,0-0.1,0-0.1c0,0,0,0,0-0.1c0,0,0,0,0-0.1c0,0,0,0,0,0
		c0,0,0-0.1,0-0.1c0-0.1,0-0.1,0.1-0.2c0,0,0.1-0.1,0.1,0c0,0,0,0,0.1,0c0,0.1,0,0.1,0.1,0.2c0,0,0,0.1,0,0.1c0,0,0,0.1,0,0.1
		c0,0,0,0.1,0,0.1c0,0,0,0.1,0,0.2c0,0.1,0,0.2-0.1,0.3c0,0-0.1,0.1-0.1,0.1c0,0,0,0.1,0,0.1c0,0,0,0.1,0,0.1c0,0,0,0.1-0.1,0.1
		c0,0-0.1,0.1-0.1,0.1c0,0.1,0,0.1-0.1,0.1c0,0-0.1,0-0.1,0.1c-0.1,0.1-0.2,0.2-0.2,0.2c0,0-0.1,0-0.2,0c-0.1,0-0.2-0.1-0.3-0.2
		c0,0,0,0,0,0c0,0,0,0-0.1,0c0,0-0.1,0-0.1,0c0,0.1-0.1,0.1-0.1,0.1c0,0-0.1,0-0.1,0.1c0,0-0.1,0-0.1,0c0,0-0.1,0-0.1,0
		c0,0-0.1,0-0.1,0c0,0-0.1,0-0.1,0c-0.1,0-0.1-0.1-0.2-0.1c0,0,0,0-0.1,0c0,0,0,0,0,0c-0.1-0.1-0.1-0.1-0.2-0.2c0,0,0,0-0.1-0.1
		c0,0-0.1-0.1-0.2-0.1c0,0,0,0-0.1,0c0,0,0,0,0,0c0,0-0.1,0.1-0.1,0.1c0,0-0.1,0-0.1,0c0,0-0.1,0-0.1,0c-0.1,0-0.1,0-0.2,0.1
		c0,0,0,0,0,0c0,0-0.1,0-0.1,0c0,0-0.1,0-0.1,0c-0.1,0-0.1,0-0.2,0.1c0,0,0,0,0,0c0,0-0.1,0-0.1,0c-0.1,0-0.1,0-0.2,0
		c0,0-0.1,0-0.1-0.1c0,0,0-0.1,0-0.1c0,0,0-0.1,0.1-0.1c0,0,0.1,0,0.1,0c0,0,0,0,0,0c0,0,0,0,0.1,0c0,0,0.1,0,0.1,0c0,0,0,0,0,0
		c0,0,0.1,0,0.1,0c0,0,0,0,0-0.1c0,0,0,0,0,0c0,0,0,0,0-0.1c-0.1,0-0.1-0.1-0.2,0c-0.1,0-0.1,0-0.2,0c-0.1,0-0.1,0-0.2,0
		c0,0-0.1,0-0.1,0.1C146.6,6.4,146.6,6.4,146.6,6.5L146.6,6.5 M147.1,5.6c0.1,0,0.1,0,0.2-0.1c0,0,0-0.1,0-0.1c0,0,0,0,0,0
		c0,0,0,0,0,0c-0.1,0-0.1,0-0.1,0c0,0-0.1,0-0.1,0c0,0-0.1,0-0.1-0.1c0-0.1,0-0.1,0.1-0.1c0.1,0,0.1,0,0.2,0c0,0,0,0,0.1,0
		c0,0,0,0,0,0c0,0,0.1,0,0.1-0.1c0,0,0,0,0-0.1l-0.2,0c0,0-0.1,0-0.1,0c-0.1,0-0.1-0.1-0.1-0.1c0,0,0-0.1,0-0.1c0.1,0,0.1,0,0.2,0
		c0,0,0.1,0,0.1,0c0,0,0.1,0,0.1,0c0,0,0.1,0,0.1,0c0.1-0.1,0.1-0.1,0.2-0.1c0.1,0,0.1,0,0.1,0c0,0,0,0,0,0c0,0,0.1,0,0.1,0
		c0.1,0.1,0.1,0,0.2,0.1c0,0,0,0,0,0c0,0,0.1,0,0.1,0c0,0,0.1,0,0.1-0.1c0.1,0,0.1,0,0.2,0c0,0,0.1,0,0.1,0.1c0,0,0.1,0.1,0.1,0
		c0,0,0,0,0,0c0.1,0.1,0.1,0,0.2,0c0,0,0,0,0-0.1c0,0,0,0,0,0c0,0,0,0-0.1-0.1c0,0,0,0,0,0c-0.1,0-0.1-0.1-0.2-0.1c0,0-0.1,0-0.1,0
		h-0.1c-0.1,0-0.1-0.1-0.1-0.1c0,0,0,0,0-0.1c0,0,0,0,0-0.1c0,0-0.1,0-0.1,0c-0.1,0-0.1,0-0.2,0c-0.1,0-0.2,0-0.2,0c0,0,0,0,0,0
		c0,0,0,0.1,0,0.1c0,0,0,0,0,0.1c0,0,0,0,0,0c0,0,0,0-0.1,0c0,0,0,0,0,0c0,0-0.1,0-0.1,0c0,0,0,0-0.1,0c0,0,0,0-0.1,0
		c0,0-0.1,0.1-0.1,0.1c0,0,0,0-0.1,0c0,0-0.1,0-0.1,0c0,0-0.1,0-0.1,0c0,0-0.1,0-0.1,0c-0.1,0-0.1,0-0.1-0.1c0,0,0-0.1-0.1-0.1
		c0,0,0,0,0-0.1c0,0,0,0,0.1,0c0,0,0,0,0,0c0.1,0,0.2,0,0.3-0.1c0,0,0,0,0,0c0,0,0,0,0.1,0c0,0,0.1,0,0.1,0c0.1,0,0.1-0.1,0.1-0.1
		c0,0,0,0,0,0c0,0,0-0.1-0.1-0.1c0,0,0,0-0.1,0c-0.1,0-0.2,0.1-0.3,0c-0.1,0-0.1,0-0.1-0.1c0-0.1,0,0-0.1,0c0,0-0.1,0-0.1,0
		c0,0,0,0-0.1,0c-0.1,0-0.1,0-0.2,0c0,0,0,0,0,0c-0.1,0-0.2,0.1-0.2,0.2c0,0.1,0,0.1,0.1,0.1c0,0,0.1,0,0.1,0c0.1,0,0.2,0,0.2,0.1
		c0,0.1,0.1,0.1,0.1,0.2c0,0,0,0,0,0c0,0-0.1,0.1-0.1,0.1c0,0,0,0,0,0c0,0-0.1,0-0.1,0c0,0,0,0,0,0c0,0,0,0,0-0.1
		c0-0.1,0-0.1-0.1-0.2c0,0,0,0,0,0c-0.1,0-0.1,0-0.1,0.1c0,0.1,0,0.1-0.1,0.2c0,0,0,0,0,0c0,0,0,0.1,0,0.1c0,0,0,0.1,0,0.1
		c0,0,0,0.1,0.1,0.1c0,0,0,0,0,0c0,0,0,0,0-0.1c0,0,0,0,0,0c0-0.1,0-0.1,0.1-0.2c0,0,0,0,0,0c0,0,0.1,0,0.1,0c0,0,0.1,0,0.1,0
		c0.1,0,0.1,0.1,0.1,0.1c0,0,0,0.1,0,0.1c0,0.1,0,0.1,0,0.2c0,0,0,0.1,0,0.1c0,0,0,0.1,0,0.1c0,0,0,0.1,0,0.1c0,0,0,0,0.1,0
		c0,0,0.1,0,0.1,0c0.1,0,0.1,0,0.2,0c0.1,0,0.1,0,0.2,0c0.1,0,0.1-0.1,0.1-0.1c0,0,0.1,0,0.1-0.1c0,0,0-0.1,0-0.1
		c-0.1,0-0.2,0-0.2,0c0,0,0,0,0,0c0,0-0.1,0-0.1,0c0,0-0.1,0-0.1,0c-0.1,0-0.1,0-0.1-0.1c0,0,0,0,0,0c0,0,0,0,0,0c0,0,0.1-0.1,0.1,0
		c0,0,0.1,0,0.1,0c0,0,0.1,0,0.1,0C147,5.6,147.1,5.6,147.1,5.6 M145.8,5C145.8,5,145.8,5,145.8,5C145.8,5,145.8,5,145.8,5
		c0-0.1-0.1-0.1-0.1-0.1c0,0-0.1,0-0.1,0.1c0,0.1-0.1,0.1,0,0.2c0,0,0,0,0,0c0,0,0,0.1,0,0.1c0,0,0,0.1,0,0.1c0,0,0,0.1,0,0.1
		c0.1,0.1,0,0.2,0,0.2c0,0,0,0.1-0.1,0.1c0,0-0.1,0-0.1,0c0,0-0.1,0-0.1,0.1c0,0,0,0-0.1,0.1c0,0-0.1,0-0.1,0.1c0,0,0,0.1,0,0.1
		c0,0.1,0,0.1,0,0.2c0,0,0,0.1,0.1,0.1c0.1,0,0,0.1,0.1,0.1c0,0,0.1,0,0.1,0c0,0.1,0.1,0.1,0.2,0.1c0.1,0,0.1,0,0.2,0
		c0.1,0,0.1,0,0.1,0c0,0,0.1,0,0.1,0c0.1,0,0.1-0.1,0.2-0.2c0,0,0,0,0-0.1c0-0.1,0-0.2,0-0.2c0,0,0-0.1,0-0.1c0,0,0,0,0-0.1
		c0,0-0.1-0.1-0.1-0.1c-0.1,0-0.1,0-0.1-0.1c-0.1,0-0.1-0.1-0.1-0.1c0,0,0,0,0-0.1c0-0.1,0-0.2,0-0.3c0,0,0-0.1,0-0.1
		c0,0,0-0.1,0-0.1C145.8,5.1,145.8,5,145.8,5 M148,6.4C148,6.4,148,6.4,148,6.4C148,6.4,148.1,6.4,148,6.4c0.1-0.1,0.1-0.1,0.1-0.1
		c0,0,0,0-0.1,0c-0.1,0-0.1-0.1-0.1-0.2c0,0,0,0,0,0c0,0,0.1,0,0.1,0c0,0,0.1,0,0.1,0c0,0,0.1,0,0.1,0c0,0,0.1,0,0.1,0
		c0,0,0.1,0,0.1,0c0,0,0.1,0,0.2,0c0,0,0.1-0.1,0.2-0.1c0,0,0,0,0,0c0,0,0,0,0,0c0,0-0.1-0.1-0.2,0c0,0,0,0,0,0c0,0-0.1,0-0.1,0
		c0,0-0.1,0-0.1,0c0,0-0.1,0-0.1,0c-0.1,0-0.1,0-0.2,0c-0.1,0.1-0.2,0.1-0.3,0.1c0,0-0.1,0.1-0.1,0c0,0,0,0,0,0c0,0.1,0,0.1,0,0.2
		c0,0.1,0,0.1,0.1,0.2c0,0,0,0,0,0C147.8,6.4,147.8,6.4,148,6.4C147.9,6.4,147.9,6.4,148,6.4 M145.1,5.3
		C145.1,5.3,145.1,5.3,145.1,5.3c0,0.1,0,0.2,0,0.2c0,0,0,0,0.1,0c0,0,0,0,0,0c0,0,0,0,0.1-0.1c0-0.1,0.1-0.1,0.1-0.1
		c0,0,0-0.1,0-0.1c0,0,0-0.1,0-0.1c0,0,0-0.1,0-0.1c0,0,0-0.1,0-0.1c0,0,0,0-0.1,0c0,0,0,0,0,0c0,0.1-0.1,0.1-0.1,0.2c0,0,0,0,0,0
		C145.1,5.2,145.1,5.2,145.1,5.3C145.1,5.3,145.1,5.3,145.1,5.3 M147.8,5.4C147.8,5.4,147.8,5.4,147.8,5.4c-0.1,0-0.1,0-0.2,0
		c0,0,0,0.1,0,0.1c0,0,0,0,0,0c0,0,0.1,0,0.1,0c0,0,0.1,0,0.1,0c0,0,0.1,0,0.1,0c0,0,0,0,0.1,0c0,0,0,0,0,0c0,0,0,0,0-0.1
		c0,0,0-0.1,0-0.1c0,0,0-0.1-0.1,0c0,0,0,0-0.1,0C148,5.4,148,5.4,147.8,5.4C147.9,5.4,147.9,5.4,147.8,5.4 M147.8,5.2
		c0.1,0,0.2,0,0.2,0c0,0,0.1-0.1,0.1-0.1c0,0,0-0.1,0-0.1c0,0,0,0-0.1,0c0,0,0,0-0.1,0c0,0-0.1,0-0.1,0c0,0,0,0-0.1,0c0,0,0,0,0,0
		c-0.1,0-0.1,0.1-0.2,0.1c0,0,0,0,0,0C147.7,5.2,147.8,5.3,147.8,5.2 M145.6,4.5C145.6,4.5,145.6,4.5,145.6,4.5
		C145.6,4.5,145.6,4.6,145.6,4.5C145.7,4.6,145.7,4.6,145.6,4.5c0.1,0,0.2,0,0.2,0c0,0,0-0.1,0-0.1c0,0-0.1,0-0.1,0
		C145.6,4.4,145.6,4.4,145.6,4.5 M146.4,6C146.3,6,146.3,6,146.4,6C146.3,6,146.3,6,146.4,6C146.4,6,146.4,6,146.4,6
		C146.4,6,146.4,6,146.4,6"/>
	<path class="st3" d="M148.8,2.4c0-0.2,0-0.3,0-0.4c0-0.1-0.1-0.2-0.2-0.3c0,0,0,0-0.1,0c-0.1,0-0.1,0-0.2,0c-0.1,0-0.1-0.1-0.3,0
		c0,0-0.1,0-0.1,0c-0.1,0-0.1,0-0.2,0c-0.1,0-0.1,0-0.2,0.1c0,0-0.1,0.1-0.2,0.1c-0.1,0-0.1,0.1-0.2,0.1c0,0,0,0,0,0
		c0,0.1-0.1,0.1-0.1,0.1c-0.1,0-0.1,0-0.1-0.1c0,0,0,0,0-0.1c0,0,0-0.1,0-0.1c0,0,0-0.1,0-0.1c0,0,0,0,0,0c0,0,0.1,0,0.1,0
		c0.1,0,0.1,0,0.2,0c0,0,0.1,0,0.1,0c0.1,0,0.2,0,0.2-0.1c0,0,0,0,0-0.1c0,0,0,0,0,0c0-0.1,0-0.1-0.1-0.1c0,0,0,0,0,0
		c-0.1,0-0.1,0-0.2,0c0,0,0,0,0,0c0,0-0.1,0-0.1,0c-0.1,0-0.2,0.1-0.2,0.1c0,0,0,0-0.1,0c-0.1,0-0.1,0-0.2,0c0,0,0,0,0-0.1
		c0,0-0.1-0.1-0.1,0c0,0-0.1,0-0.1,0.1c-0.1,0.1-0.2,0.1-0.3,0.1c0,0-0.1,0-0.1,0c0,0,0,0-0.1-0.1c0-0.1,0-0.2,0.1-0.3
		c0-0.1,0.1-0.1,0.1-0.1c0,0,0.1,0,0.1,0c0,0,0,0,0.1,0c0,0,0.1,0,0.1,0c0.1,0,0.1,0,0.2,0c0,0,0.1,0.1,0.1,0c0.1,0,0.2-0.1,0.2,0
		c0,0,0.1,0,0.1,0c0.1,0,0.1,0,0.2,0c0,0,0,0,0,0c0,0,0.2,0,0.2,0c0,0,0,0,0,0c0.1,0,0.1,0,0.2,0c0,0,0,0,0,0c0.1,0,0.1,0,0.2,0
		c0,0,0,0,0.1,0c0.1,0,0.2,0,0.3,0c0,0,0.1,0,0.1,0c0,0,0,0,0,0c0,0,0,0,0,0c0,0,0.1,0,0.1,0c0,0,0.1,0,0.1,0c0,0,0.1,0,0.1,0
		c0,0,0.1,0,0.1,0c0,0,0.1,0,0.1,0c0,0,0.1,0,0.2,0c0,0,0.1,0,0.1,0c0,0,0,0,0,0.1c0,0,0,0.1,0,0.1c0,0,0,0.1-0.1,0c0,0,0,0,0,0
		c0,0,0,0,0,0c0,0,0,0,0,0c0,0,0,0,0,0c-0.1,0.1-0.1,0-0.2,0c0,0-0.1,0-0.1,0c0,0-0.1,0-0.1,0c-0.1,0-0.1,0-0.2,0c0,0,0,0,0,0
		c-0.1-0.1-0.1,0-0.2,0c0,0-0.1,0.1-0.1,0.1c0,0,0,0.1,0.1,0.1c0,0,0.1,0,0.1,0c0.1,0,0.2,0,0.3,0c0.1,0,0.1,0,0.1,0
		c0,0,0.1,0,0.1,0c0.1,0,0.1,0,0.2,0.1c0,0,0,0,0,0c0,0,0.1,0,0.1,0.1c0,0,0,0.1,0,0.1c0,0,0,0.1,0,0.1c0,0,0,0.1,0,0.1
		c0,0,0,0.1,0,0.1c0,0,0,0.1,0,0.1c0,0,0,0.1,0,0.1c0,0,0,0.1,0,0.1c0,0.1,0,0.1,0,0.1c0,0,0,0.1,0,0.1c0,0,0,0.1,0.1,0.1
		c0,0,0,0,0,0.1c0,0,0,0.1,0,0.1c0,0,0,0.1-0.1,0.1c0,0-0.1,0.1-0.1,0.1c0,0,0,0,0,0c0,0,0,0-0.1,0c0,0,0,0-0.1,0c0,0,0,0-0.1,0
		c0,0,0,0-0.1,0c0,0,0,0-0.1,0c0,0-0.1,0-0.1,0c0,0,0,0-0.1,0.1c0,0,0,0,0,0.1c0,0,0.1,0.1,0.1,0.1c0,0,0,0,0,0c0,0.1,0.1,0,0.1,0.1
		c0,0,0.1,0,0.1,0c0.1,0,0.2,0,0.3,0c0,0,0.1,0,0.1,0.1c0,0,0,0.1,0,0.1c0,0,0,0,0,0c0,0-0.1,0-0.1,0.1c0,0,0,0.1-0.1,0.1
		c0,0-0.1,0.1-0.1,0c0,0,0,0,0,0c-0.1,0.1-0.2,0-0.2,0c0,0-0.1,0-0.1,0c0,0-0.1,0-0.1-0.1c-0.1,0-0.1-0.1-0.2-0.1
		c0,0-0.1-0.1-0.1-0.1c-0.1,0-0.1-0.1-0.1-0.2c0-0.1-0.1-0.1-0.1-0.2c0,0-0.1,0-0.1,0c0,0-0.1,0-0.1,0.1c0,0.1,0,0.1-0.1,0.1
		c0,0,0,0-0.1,0.1c0,0,0,0-0.1,0c0,0,0,0,0,0c0,0.1-0.1,0.1-0.2,0.2c0,0-0.1,0-0.1,0c0,0,0,0,0,0c0,0-0.1,0-0.1,0.1c0,0-0.1,0-0.1,0
		c0,0-0.1,0.1-0.2,0.1c-0.1,0-0.1,0-0.2,0c-0.1,0-0.1,0-0.2-0.1c0,0-0.1-0.1-0.1-0.1c0,0-0.1,0-0.1,0c0,0-0.1,0-0.1,0
		c-0.1,0-0.1-0.1-0.2-0.1c0,0,0,0-0.1-0.1c0,0,0,0,0-0.1c0,0,0,0-0.1,0c0,0,0,0,0,0c0-0.1-0.1-0.1-0.1-0.2c0,0,0,0,0,0
		c0-0.1-0.1-0.1-0.2-0.1c0,0,0,0,0,0c0,0.1-0.1,0.1-0.1,0.2c0,0-0.1,0-0.1,0.1c0,0,0,0,0,0c0,0.1-0.1,0.1-0.1,0.2c0,0,0,0,0,0
		c0,0.1-0.1,0.1-0.1,0.1c-0.1,0-0.1,0.1-0.2,0.1c0,0-0.1,0-0.1,0c0,0-0.1,0-0.1,0c0,0,0,0-0.1,0c-0.1,0-0.1-0.1-0.2-0.1c0,0,0,0,0,0
		c0,0-0.1,0-0.1-0.1c0,0,0,0,0-0.1c0,0,0,0,0,0c0,0,0,0,0,0c0,0,0.1,0,0.1-0.1c0,0,0,0,0,0c0.1,0,0.1,0,0.2-0.1c0,0,0.1,0,0.1,0
		c0,0,0.1,0,0.1-0.1c0-0.1,0.1-0.1,0.2-0.2c0.1-0.1,0.1-0.1,0-0.1c0,0-0.1,0-0.1,0c0,0-0.1,0-0.1,0c0,0-0.1,0-0.1,0c0,0,0,0-0.1,0
		c-0.1,0-0.1,0-0.2,0c0,0,0,0,0,0c0,0,0,0,0,0c0,0,0,0,0,0c0,0,0,0,0,0c0,0,0,0,0,0c0,0,0,0,0,0l0,0c0,0,0,0,0,0
		c0-0.1,0-0.1,0.1-0.1c0,0,0.1,0,0.1,0c0.1,0,0.1,0,0.2,0c0.1,0,0.1,0,0.2,0c0,0,0.1,0,0.1,0c0.1,0,0.1,0,0.2-0.1c0,0,0,0,0.1,0
		c0,0,0,0,0,0c0,0,0-0.1,0-0.1c0,0,0-0.1,0-0.1c0,0-0.1,0-0.1-0.1c0,0,0-0.1,0-0.1c0-0.1,0-0.1,0-0.2c0,0,0,0,0-0.1c0,0,0,0-0.1,0
		c-0.1,0.1-0.1,0.1-0.2,0.2c0,0.1-0.1,0.1-0.1,0.1c0,0.1-0.1,0.1-0.2,0.1c0,0,0,0,0,0c0,0-0.1,0-0.2,0c0,0,0,0-0.1,0c0,0,0,0-0.1,0
		c0,0,0,0-0.1,0c0,0,0,0,0,0c0-0.1,0-0.1,0.1-0.2c0,0,0.1,0,0.1,0c0,0,0,0,0.1,0c0,0,0,0,0,0c0-0.1,0.1,0,0.2-0.1
		c0.1,0,0.1,0,0.2-0.1c0.1,0,0.2-0.1,0.2-0.2c0,0,0-0.1,0-0.1c-0.1,0-0.1,0-0.2,0c0,0-0.1,0-0.2,0.1c0,0-0.1,0-0.1,0c0,0,0,0,0,0
		c0,0-0.1,0-0.1,0c0,0-0.1-0.1-0.1-0.1c0,0,0,0,0-0.1c0,0,0-0.1,0.1-0.1c0,0,0,0,0.1,0c0,0,0.1-0.1,0.1,0c0,0,0.1,0,0.1,0
		c0,0,0.1-0.1,0.1-0.1c0,0,0,0-0.1,0c-0.1,0-0.1,0-0.2-0.1c0-0.1,0-0.1,0-0.2c0,0,0-0.1,0-0.1c0,0,0,0,0.1,0c0,0,0,0,0.1,0
		c0,0,0.1,0,0.1,0c0,0,0.1,0,0.1,0c0,0,0,0,0,0c0.1,0.1,0.1,0.1,0.1,0.2c0,0,0,0.1,0,0.1c0,0,0,0.1,0,0.1c0,0,0,0.1,0,0.1
		c0.1,0,0.1,0,0.2-0.1c0,0,0,0,0,0c0,0,0-0.1,0-0.1c0,0,0,0,0,0c0,0,0-0.1,0-0.2c0-0.1,0-0.1,0.1-0.1c0,0,0.1,0,0.2,0h0.1
		c0.1,0,0.1,0,0.1,0.1c0,0,0,0.1,0,0.1c0,0,0,0.1,0,0.1c0,0.1,0,0.1,0,0.2c0,0.1,0,0.1,0.1,0.1c0,0,0,0,0,0c0.1,0.1,0.1,0.1,0.2,0
		c0.1,0,0.1,0,0.2,0c0,0,0,0,0.1,0c0,0,0,0,0.1,0c0,0,0,0,0.1,0c0,0,0.1,0,0.1,0c0,0,0,0.1,0,0.1c0,0-0.1,0-0.1,0.1c0,0,0,0-0.1,0
		c-0.1,0-0.2,0-0.3,0.1c0,0-0.1,0-0.1,0c0,0,0,0.1,0,0.1c0,0,0,0,0.1,0c0.1,0,0.2,0,0.2,0.1c0,0,0,0,0,0c0.1,0,0.1,0,0.1,0
		c0,0,0.1,0,0.1,0.1c0,0,0,0,0,0c0.1,0.1,0.1,0.1,0,0.2c-0.1,0.1-0.1,0.1-0.2,0.1c0,0,0,0,0,0c-0.1,0-0.1,0-0.2-0.1
		c-0.1,0-0.1-0.1-0.2-0.1c0,0-0.1-0.1-0.1-0.1c0,0,0,0,0-0.1c0,0,0-0.1-0.1-0.1c-0.1,0-0.1,0-0.1,0.1c0,0,0,0.1,0,0.1
		c0,0,0,0.2-0.1,0.2c-0.1,0.1-0.1,0.1,0,0.1c0.1,0.1,0.2,0.1,0.3,0.1c0.1,0,0.1,0,0.2,0c0,0,0.1,0,0.1,0c0,0,0.1,0,0.1,0
		c0,0,0,0,0.1,0c0,0,0.1,0,0.1,0c0,0,0,0.1,0.1,0.1c0,0.1,0,0.1-0.1,0.1c0,0,0,0,0,0c0,0,0,0-0.1,0c0,0-0.1,0-0.1,0c0,0-0.1,0-0.2,0
		c0,0-0.1,0-0.1,0c0,0,0,0-0.1,0c-0.1,0-0.1,0-0.1,0.1c0,0,0,0,0,0c0.1,0,0.1,0,0.2,0c0,0,0.1,0,0.1,0.1c0,0.1,0.1,0.1,0.1,0.1
		c0.1,0,0.1,0.1,0.1,0.2c0,0,0,0.1,0,0.1c0,0,0.1,0,0.1,0c0,0,0,0,0,0c0,0,0,0,0.1,0c0,0,0,0,0.1,0c0,0,0,0,0.1,0
		c0.1,0,0.2,0,0.2-0.1c0,0,0,0,0.1,0c0.1,0,0.1-0.1,0.2-0.2c0,0,0,0,0,0c0,0-0.1-0.1-0.1-0.1c0,0-0.1,0-0.1,0c0,0-0.1,0-0.1,0
		c0,0-0.1,0-0.1,0c-0.1,0-0.1-0.1-0.1-0.2c0,0,0,0,0,0c0,0,0-0.1,0-0.1c0,0,0-0.1,0-0.1c0,0,0-0.1,0-0.1c0,0,0-0.1,0-0.1
		c0-0.1,0-0.1,0-0.2c0,0,0-0.1,0-0.1c0,0,0.1-0.1,0.2-0.1c0,0,0.1,0,0.1,0.1c0,0,0,0.1,0,0.1c0,0,0,0.1,0,0.1c0,0,0,0.1,0,0.1
		c0,0,0,0.1,0,0.1c0,0.1,0,0.1,0.1,0.1c0,0,0.1,0.1,0.2,0.1c0.1,0,0.1,0,0.2,0.1c0,0,0,0,0.1,0l0.1,0c0,0,0,0,0.1,0
		c0.1,0,0.1,0,0.2,0c0.1,0,0.1,0,0.2,0c0,0,0,0,0.1,0c0.1,0,0.2,0,0.2-0.1c0.1-0.1,0.1-0.1,0.1-0.2C148.8,2.5,148.8,2.4,148.8,2.4"
		/>
	<path class="st3" d="M151.7,7.6c0,0,0-0.1,0-0.1c0-0.1-0.1-0.1-0.1-0.1c0,0-0.1-0.1-0.2,0c0,0-0.1,0-0.1,0c-0.1,0-0.1,0-0.1,0
		c-0.1,0.1-0.1,0.1-0.2,0c0,0,0,0,0,0c-0.1,0-0.2,0-0.3-0.1c0,0,0-0.1,0-0.1c0,0,0-0.1,0-0.1c0,0,0,0,0,0c0,0,0.1,0,0.2,0
		c0,0,0.1,0,0.1,0c0,0,0.1,0,0.1,0c0,0,0,0,0,0c0,0,0.1,0,0.1,0c0,0,0.1,0,0.1,0c0,0,0.1,0,0.1,0c0,0,0.1,0,0.1,0c0.1,0,0.1,0,0.2,0
		c0,0,0,0,0.1,0c0,0,0.1,0,0.1,0c0,0,0,0,0,0c0,0,0,0,0,0c0,0,0,0,0.1,0c0,0,0,0,0.1,0c0,0,0,0,0.1,0c0,0,0.1,0,0.1,0
		c0,0,0.1,0,0.1,0c0,0,0.1,0,0.1,0c0,0,0,0,0.1,0c0,0,0,0,0,0c0,0,0.1,0,0.1,0c0.1,0,0.2,0,0.4,0c0,0,0.1,0,0.1,0c0,0,0,0,0,0
		c0.1,0,0.1,0,0.2,0c0,0,0,0,0.1,0c0,0,0,0,0,0c0.1,0,0.1,0,0.2,0c0,0,0,0,0.1,0c0.1,0,0.1,0,0.2,0.1c0,0,0.1,0.1,0.1,0.1
		c0,0,0,0,0,0c0,0-0.1,0.1-0.1,0.1c0,0-0.1,0-0.1,0c0,0-0.1,0-0.1,0h-0.1c-0.1,0-0.1,0-0.2,0c0,0-0.1,0-0.1,0c0,0,0,0-0.1,0
		c-0.1,0-0.2,0-0.3,0c0,0,0,0-0.1,0c-0.1,0-0.1,0.1-0.1,0.2c0,0,0,0,0,0.1c0,0.1,0,0.1,0.1,0.1c0.1,0,0.2,0,0.3,0c0,0,0.1,0,0.1,0
		c0.1,0,0.1,0,0.2,0c0,0,0.1,0.1,0.1,0.1c0.1,0,0.1,0,0.1,0.1c0,0,0,0,0,0c0,0,0,0.1,0,0.1c0,0,0,0.1,0,0.1c0,0,0,0.1,0,0.1
		c0,0,0,0.1,0,0.1c0,0.1,0,0.2,0,0.2c0,0.1,0,0.1,0,0.2c0,0.1,0,0.1,0.1,0.1c0,0,0,0.1,0,0.1c0,0,0,0.1,0,0.1c0,0,0,0,0,0
		c0,0,0,0,0,0c0,0,0,0,0,0.1c0,0,0.1,0,0,0.1c0,0,0,0,0,0.1c0,0,0,0.1,0,0.1c0,0,0,0,0,0c-0.1,0,0,0.1,0,0.1c0,0,0,0.1,0,0.1
		c0,0-0.1,0.1-0.1,0.1c0,0-0.1,0-0.1,0c0,0,0,0-0.1,0c0,0-0.1,0.1-0.1,0c0,0-0.1,0-0.1,0c0,0,0,0-0.1,0c0,0-0.1,0-0.1,0
		c-0.1,0-0.1,0-0.2,0c0,0,0,0-0.1,0c0,0-0.1,0-0.1,0c0,0-0.1,0-0.1,0c-0.1,0-0.1,0-0.2,0c-0.1,0-0.1,0-0.2,0c0,0-0.1,0-0.1,0
		c0,0-0.1,0.1-0.1,0c0,0-0.1,0-0.1,0c0,0,0,0,0,0c-0.1,0-0.1,0-0.2,0c0,0-0.1,0-0.1,0c-0.1,0-0.2,0-0.2,0c0,0-0.1,0-0.1,0
		c0,0-0.1,0-0.1,0c-0.1,0-0.1,0-0.2-0.1c0,0,0,0-0.1-0.1c0,0-0.1,0-0.1-0.1c0,0,0,0,0,0c0-0.1,0-0.1,0-0.2c0,0,0-0.1,0-0.1
		c0,0,0,0,0,0c0-0.1,0-0.1,0-0.2c0-0.1,0-0.1,0-0.2c0,0,0-0.1,0-0.1c0-0.1,0-0.2,0-0.3c0,0,0-0.1,0-0.1c0,0,0-0.1,0-0.1
		c0,0,0-0.1,0-0.1c0,0,0,0,0-0.1c0-0.1,0-0.1,0-0.2c0,0,0,0,0,0c0-0.1,0.1-0.1,0.1-0.2c0.1,0,0.1-0.1,0.2-0.1c0,0,0.1,0,0.1,0
		c0,0,0.1,0,0.1,0c0.1,0,0.2,0,0.3,0c0,0,0,0,0.1,0C151.7,7.7,151.7,7.7,151.7,7.6C151.7,7.6,151.7,7.6,151.7,7.6 M152.1,8.4
		C152.1,8.4,152.1,8.5,152.1,8.4c0,0.1,0,0.2,0,0.2c0,0-0.1,0.1-0.1,0.1c0,0-0.1,0-0.1,0c0,0,0,0,0,0c0,0,0,0,0,0
		c0,0.1,0,0.1-0.1,0.1c0,0,0,0-0.1,0c0,0-0.1,0-0.1,0c-0.1,0.1-0.1,0.1-0.2,0.1c-0.1,0-0.1,0-0.1-0.1c0,0,0,0-0.1-0.1
		c0,0-0.1,0-0.1,0c0,0,0,0.1,0,0.1c0,0.1,0,0.1,0,0.2c0,0,0,0,0,0.1c0,0.1,0,0.1,0,0.2c0,0,0,0,0,0c0,0.1,0,0.1,0,0.2
		c0,0,0,0.1,0.1,0.1c0,0,0,0,0,0c0,0,0,0,0,0c0.1,0.1,0.2,0.1,0.3,0.1c0,0,0.1,0,0.1,0c0,0,0.1,0,0.1,0c0,0,0.1,0,0.1,0
		c0,0,0.1,0,0.1,0c0.1,0,0.2,0,0.3,0.1c0,0,0,0,0,0c0.1,0,0.1,0,0.2,0c0.1,0,0.1,0,0.2,0c0,0,0,0,0.1,0c0.1,0,0.1,0,0.2,0
		c0,0,0.1,0,0.1,0c0,0,0,0,0.1,0c0.1,0,0.2-0.1,0.3-0.1c0,0,0.1-0.1,0.1,0c0,0,0,0,0,0c0.1-0.1,0.1-0.3,0.1-0.4c0,0,0-0.1,0-0.1
		c0-0.1,0-0.2,0-0.2c0-0.1-0.1-0.1-0.1-0.1c0,0-0.1,0-0.1,0.1c0,0,0,0,0,0c0,0-0.1,0-0.1,0c0,0,0,0-0.1,0c0,0-0.1,0-0.1,0
		c0,0,0,0-0.1,0c0,0-0.1,0-0.1,0c0,0,0,0-0.1-0.1c-0.1-0.1-0.1-0.2-0.1-0.3c0,0,0-0.1,0-0.1c0,0,0-0.1,0-0.1c0-0.1,0-0.1-0.1-0.2
		c0,0,0-0.1-0.1-0.1c0,0-0.1,0-0.1,0c0,0-0.1,0-0.1,0c0,0.1-0.1,0.1-0.1,0.2c0,0,0,0,0,0c0,0,0,0.1,0,0.1
		C152.1,8.3,152.1,8.4,152.1,8.4 M151.2,8.7C151.2,8.7,151.2,8.6,151.2,8.7C151.2,8.6,151.2,8.6,151.2,8.7c0.1-0.1,0.2-0.1,0.2-0.1
		c0,0,0.1,0,0.1,0c0,0,0,0,0,0c0-0.1,0.1-0.1,0.1-0.1c0,0,0.1-0.1,0.1-0.1c0,0,0-0.1,0-0.1c0,0,0-0.1,0-0.1c0,0,0-0.1,0-0.1
		c0,0,0,0,0,0c0,0-0.1,0-0.1,0c0,0-0.1,0-0.1,0c0,0-0.1,0-0.1,0c0,0,0,0-0.1,0.1c0,0-0.1,0.1-0.1,0.1c0,0-0.1,0.1-0.1,0.1
		c0,0,0,0.1,0,0.1C151.1,8.6,151.1,8.7,151.2,8.7L151.2,8.7z M152.8,8.1L152.8,8.1c0,0.1,0,0.2,0.1,0.2c0.1,0.1,0.2,0.1,0.3,0.2
		c0,0,0.1,0,0.1,0c0.1,0,0.1-0.1,0.1-0.2c0,0,0-0.1,0-0.1c0,0,0-0.1,0-0.1c0,0-0.1-0.1-0.1-0.1C153.2,8,153.1,8,153,8
		c0,0-0.1,0-0.1,0c0,0-0.1,0-0.1,0C152.8,8.1,152.8,8.1,152.8,8.1L152.8,8.1z M152.2,7.5c0,0.1,0,0.1,0,0.2c0,0,0,0,0,0
		c0,0,0,0,0.1,0c0,0,0.1,0,0.1,0c0,0,0.1,0,0.1-0.1c0-0.1,0-0.1,0.1-0.2c0,0,0,0,0,0c0,0,0-0.1-0.1-0.1c0,0-0.1,0-0.1,0
		c-0.1,0-0.1,0-0.1,0.1C152.1,7.4,152.2,7.5,152.2,7.5 M153.1,7.2C153.1,7.2,153.1,7.2,153.1,7.2C153,7.2,153,7.2,153.1,7.2
		C153,7.3,153,7.3,153.1,7.2C153.1,7.3,153.1,7.3,153.1,7.2 M151.5,8.8C151.5,8.8,151.4,8.7,151.5,8.8
		C151.4,8.7,151.4,8.7,151.5,8.8C151.4,8.8,151.4,8.8,151.5,8.8C151.4,8.8,151.5,8.8,151.5,8.8"/>
	<path class="st3" d="M148.8,7.7c0,0-0.1,0-0.1,0c0,0,0,0,0,0c0-0.1-0.1,0-0.2,0c0,0,0,0-0.1,0c-0.1,0-0.2,0-0.3,0c0,0-0.1,0-0.1,0
		c-0.1,0-0.1,0-0.1,0.1c0,0,0,0.1,0,0.1c0,0,0,0.1,0.1,0.1c0,0,0.1,0,0.1,0c0.1,0,0.2,0,0.3,0c0.1,0,0.2,0,0.3,0c0,0,0.1,0,0.1,0
		c0,0,0.1,0,0.1,0c0,0,0,0,0,0c0,0,0,0,0,0c0.1,0,0.1,0,0.2,0c0,0,0.1,0,0.1,0c0,0,0.1,0,0.1,0c0,0,0,0.1,0.1,0.1c0,0,0,0,0,0.1
		c0,0,0,0.1,0,0.1c0,0-0.1,0-0.1,0c-0.1,0-0.1,0-0.2,0c0,0-0.1,0-0.1,0c-0.1,0-0.1,0-0.2,0c0,0,0,0-0.1,0c0,0-0.1,0-0.1,0
		c0,0,0,0,0,0c0,0-0.1,0-0.1,0c0,0-0.1,0-0.2,0c0,0,0,0-0.1,0c0,0,0,0-0.1,0c0,0-0.1,0-0.1,0c-0.1,0-0.2,0-0.2,0c0,0,0,0-0.1,0
		c0,0-0.1,0-0.1,0c0,0-0.1,0-0.1,0c0,0,0,0-0.1,0c-0.1,0-0.1,0-0.2,0c0,0,0,0-0.1,0c0,0,0,0-0.1,0c0,0-0.1,0-0.1,0
		c-0.1,0-0.2,0-0.3,0c0,0-0.1,0-0.1,0c0,0-0.1,0.1-0.2,0.1c0,0-0.1,0-0.1,0c0,0-0.1,0-0.1,0c0,0,0,0,0,0c0,0,0,0,0,0c0,0,0,0-0.1,0
		c0,0-0.1,0-0.1,0c-0.1,0.1-0.2,0-0.2,0c0,0,0,0,0,0c0,0,0-0.1,0-0.1c0,0,0,0-0.1,0c0,0-0.1,0.1,0,0.1c0,0,0,0,0,0c0,0,0,0.1,0,0.1
		c0,0,0,0.1,0,0.1c0,0,0,0.1,0,0.1c0,0,0,0,0,0c0,0.1,0,0.1,0,0.2c0,0,0,0.1,0,0.1c0,0,0.1,0.1,0.1,0.1c0,0,0.1,0.1,0.1,0.1
		c0,0,0.1,0,0.1,0.1c0,0,0,0,0.1,0c0,0,0.1,0,0.1,0c0,0,0.1,0,0.1,0c0,0,0.1,0,0.1,0c0,0,0.1,0,0.1,0c0.1,0,0.1,0,0.1,0.1
		c0,0,0.1,0,0.1,0c0.1,0,0.2,0.1,0.3,0c0.1,0,0.1,0,0.2,0c0,0,0.1,0,0.1,0c0,0,0,0,0,0c0,0,0,0,0.1,0c0,0,0.1,0,0.1,0c0,0,0,0,0.1,0
		c0,0,0.1,0,0.1,0c0,0,0,0,0.1,0c0,0,0.1,0,0.1,0c0,0,0,0,0.1,0c0,0,0,0,0,0c0.1,0,0.2,0,0.2,0c0,0,0.1,0,0.1,0c0,0,0.1,0,0.1,0
		c0.1,0,0.2,0,0.2-0.1c0,0,0.1,0,0.1,0c0,0,0.1,0,0.1,0c0,0,0,0,0,0c0,0.1,0,0,0.1,0c0,0,0,0,0.1,0c0,0,0,0,0,0c0,0,0,0.1,0,0.1
		c0,0,0,0.1,0,0.1c0,0,0,0.1-0.1,0.1c0,0-0.1,0-0.1,0.1c-0.1,0.1-0.2,0.1-0.3,0.1c-0.1,0-0.1,0-0.2,0c0,0-0.1,0-0.1,0
		c0,0-0.1,0-0.1,0c0,0-0.1,0-0.1,0c0,0-0.1,0-0.1,0c0,0-0.1,0-0.1,0c0,0-0.1,0-0.2,0c0,0,0,0-0.1,0c-0.1,0-0.1,0-0.2,0
		c-0.1,0-0.1,0-0.2,0c-0.1,0-0.1-0.1-0.2-0.1c0,0-0.1,0-0.1,0c0,0,0,0-0.1,0c0,0,0,0-0.1,0c0,0-0.1,0-0.2,0c0,0-0.1-0.1-0.1,0
		c0,0-0.1,0-0.2,0c-0.1,0-0.2-0.1-0.3-0.1c0,0,0,0,0,0c0,0,0,0,0,0c-0.1,0-0.2,0-0.3,0c0,0-0.1,0-0.1,0c0,0,0,0-0.1,0
		c-0.1,0-0.2,0.1-0.3,0.2c0,0,0,0,0,0c-0.1,0.1-0.1,0.1-0.2,0.1c-0.1,0-0.1,0-0.2,0c0,0-0.1,0-0.1,0c0,0,0,0,0,0
		c0,0-0.1-0.1-0.1-0.1c-0.1-0.1,0-0.2,0.1-0.2c0,0,0,0,0.1,0c0.1,0,0.1,0,0.1,0c0,0,0.1-0.1,0.1,0c0,0,0.1,0,0.1-0.1
		c0-0.1,0.1-0.2,0.2-0.3c0,0,0-0.1,0-0.1c0,0,0-0.1,0-0.1c0-0.1,0-0.2,0.1-0.2c0,0,0,0,0,0c0-0.1-0.1-0.2-0.1-0.2c0,0,0,0,0,0
		c-0.1,0-0.1-0.1-0.2-0.1c-0.1,0-0.1,0-0.2,0c-0.1,0-0.1,0-0.1,0c-0.1-0.1,0-0.2,0-0.3c0,0,0.1,0,0.1-0.1c0,0,0.1,0,0.1,0
		c0.1,0,0.2,0,0.3,0c0,0,0.1,0,0.1,0c0,0,0,0,0.1,0c0,0,0.1,0,0.1,0c0,0,0.1,0,0.1,0c0.1,0,0.1,0,0.1,0.1c0.1,0,0.1,0.1,0.1,0.1
		c0,0.1,0.1,0.1,0.2,0c0.1,0,0.2-0.1,0.2-0.1c0,0,0.1,0,0.1,0c0,0,0,0,0,0c0,0,0-0.1,0-0.1c0,0,0,0,0,0c0,0-0.2-0.1-0.2-0.1
		c0,0-0.1,0-0.1-0.1c0,0,0-0.1,0-0.1c0.1-0.1,0.1-0.1,0.2-0.2c0.1-0.1,0.1-0.1,0.1-0.2c0-0.1,0-0.1,0-0.2c0,0,0,0,0,0
		c0,0,0.1,0,0.1,0c0,0,0.1,0,0.1,0c0,0,0,0,0,0c0,0,0,0.1,0,0.1c0,0,0,0,0.1,0.1c0,0,0,0,0,0.1c0,0.1,0,0,0.1,0.1c0,0,0,0,0,0
		c0,0,0.1,0,0.1,0c0,0,0,0,0.1,0c0.1,0,0.2,0,0.2,0c0,0,0,0,0.1-0.1c0-0.1,0.1-0.2,0.1-0.3c0-0.1,0-0.1,0.1-0.1c0,0,0.1,0,0.1,0
		c0,0,0,0,0,0c0,0,0,0.1,0,0.1c0,0,0,0.1,0,0.1c0,0,0,0,0,0.1c0,0,0,0.1,0,0.1c0,0,0,0.1,0.1,0.1c0,0,0,0,0,0c0.1,0,0.2,0,0.3,0
		c0,0,0,0,0,0c0,0,0,0,0.1,0c0,0,0,0,0.1,0c0,0,0.1,0,0.1,0c0,0,0.1,0,0.1,0c0,0,0,0,0.1,0c0.1,0,0.1,0,0.2,0c0,0,0.1,0,0.1,0.1
		c0,0,0.1,0.1,0,0.1c0,0,0,0,0,0c0,0.1,0,0.1-0.1,0.1C148.9,7.7,148.8,7.7,148.8,7.7 M147.4,7.8C147.4,7.8,147.4,7.8,147.4,7.8
		c0-0.1-0.1-0.2-0.1-0.2c-0.1,0-0.1,0-0.2,0c0,0,0,0,0,0c0,0-0.1,0-0.1,0c0,0-0.1,0-0.1,0c0,0-0.1,0-0.1,0c0,0-0.1,0.1-0.1,0.1
		c0,0.1,0,0.1-0.1,0.1c0,0,0,0-0.1,0c0,0,0,0.1-0.1,0.1c0,0,0,0,0.1,0c0,0,0,0,0.1,0c0,0,0.1,0,0.1,0c0,0,0.1,0,0.1,0c0,0,0,0,0,0
		c0.1,0,0.1,0,0.2,0c0,0,0,0,0,0c0,0,0.1,0,0.1,0c0,0,0.1,0,0.1,0c0-0.1,0,0,0.1-0.1C147.4,7.9,147.4,7.9,147.4,7.8"/>
	<path class="st3" d="M152.6,1.6c0.1,0,0.1,0,0.2,0c0,0,0,0,0.1,0c0.1,0,0.1,0,0.2,0c0,0,0,0,0,0c0,0,0.1,0.1,0.1,0.1c0,0,0,0,0,0.1
		c-0.1,0.1-0.1,0.1-0.2,0.1c0,0,0,0,0,0c0,0.1-0.1,0-0.1,0c-0.1,0-0.1,0-0.2,0c0,0-0.1,0-0.1,0c0,0-0.1,0-0.1,0c0,0-0.1,0-0.1,0.1
		c0,0-0.1,0.1-0.1,0.1c0,0,0,0.1,0.1,0.1c0,0,0.1,0.1,0.1,0.1c0.1,0.1,0.1,0,0.2,0c0,0,0.1,0,0.1,0c0.1,0,0.2,0,0.2,0
		c0,0,0.1,0,0.1,0c0,0,0,0,0,0c0,0,0,0,0,0.1c0,0,0,0,0,0.1c0,0.1-0.1,0.1-0.2,0.1c0,0-0.1,0-0.1,0c0-0.1-0.1,0-0.1,0
		c0,0-0.1,0-0.1,0c0,0,0,0-0.1,0c0,0,0,0,0,0c0,0-0.1,0-0.1,0c0,0-0.1,0-0.1,0c-0.1,0-0.2,0.1-0.2,0.2c0,0,0,0.1,0,0.1
		c0,0.1-0.1,0.2-0.1,0.3c0,0,0,0,0,0c0,0,0,0,0,0.1c0,0,0,0.1,0,0.1c0,0-0.1,0.1-0.1,0.1c0,0,0,0,0,0c-0.1,0-0.1,0.1-0.2,0.1
		c0,0,0,0,0,0c-0.1,0-0.1,0.1-0.2,0.1c-0.1,0-0.2,0-0.3,0c0,0,0,0,0,0c0,0-0.1,0-0.1,0c-0.1,0-0.1-0.1-0.1-0.1c0,0,0-0.1,0-0.1
		c0,0,0,0,0,0c0.1,0,0.1,0,0.2-0.1c0,0,0.1,0,0.1,0c0,0,0.1,0,0.1,0c0.1-0.1,0.2-0.1,0.2-0.2c0-0.1,0.1-0.1,0.1-0.1
		c0,0,0-0.1,0.1-0.1c0,0,0-0.1,0-0.1c0,0,0,0,0-0.1c0,0,0-0.1,0.1-0.1c0,0,0,0,0-0.1c0-0.1,0-0.2,0-0.2c0,0,0-0.1,0-0.1
		c0-0.1,0-0.2,0-0.3c0,0,0-0.1,0-0.1c0,0,0-0.1,0-0.1c0,0,0-0.1,0-0.1c0,0,0-0.1,0-0.1c0-0.1,0-0.1-0.1-0.2c0,0,0-0.1,0-0.1
		c0,0,0-0.1,0-0.1c0,0,0-0.1,0.1-0.1c0,0,0.1,0,0.1-0.1l0,0c0.1,0,0.1-0.1,0.2-0.1c0,0,0.1,0,0.1,0c0,0,0.1,0,0.2,0c0,0,0,0,0.1,0
		c0,0,0.1,0,0.1,0c0.1,0,0.1,0,0.2,0c0,0,0,0,0,0c0,0,0.1,0,0.1,0c0,0,0.1,0,0.1,0c0,0,0,0,0,0c0,0,0,0,0,0c0.1,0,0.2,0,0.3,0
		c0.1,0,0.2,0,0.3,0.1c0,0,0,0,0.1,0c0,0,0,0,0,0c0,0,0,0.1,0.1,0.1c0,0,0,0.1,0,0.1c0,0.1,0,0.1-0.1,0.2c0,0,0,0.1,0,0.1
		c0,0,0,0.1,0,0.1c0,0,0,0,0,0c0,0.1,0,0.1,0,0.2c0,0,0,0,0,0.1c0,0,0,0,0,0c0,0,0,0,0,0.1c0,0.1,0,0.1,0,0.2c0,0,0,0,0,0
		c0,0.1,0,0.1,0,0.2c0,0,0,0,0,0c0,0.2,0,0.4,0,0.6c0,0,0,0.1,0,0.1c0,0,0,0,0,0.1c0,0.1,0,0.2,0,0.3c0,0,0,0.1,0,0.1
		c0,0.1,0,0.1,0,0.1c0,0,0,0,0,0c0,0,0,0.1,0,0.1c0,0,0,0.1,0,0.1c0,0,0,0.1-0.1,0.1c0,0,0,0,0,0c0,0-0.1,0-0.1,0c0,0-0.1,0-0.1,0
		c-0.1,0-0.1,0-0.1-0.1c0,0,0,0,0,0c-0.1-0.1-0.1-0.1,0-0.2c0,0,0,0,0-0.1c0,0,0,0,0-0.1c0-0.1,0-0.1,0-0.2c0,0,0,0,0,0
		c0-0.1,0-0.1,0-0.2c0-0.1,0-0.1,0-0.2c0,0,0-0.1,0-0.1c0-0.3,0-0.5,0-0.8c0-0.2,0-0.3,0-0.5c0,0,0,0,0-0.1c0-0.1,0-0.1,0-0.2
		c0,0,0,0,0,0c-0.1,0-0.2-0.1-0.3-0.1c0,0,0,0,0,0c-0.1,0-0.1,0-0.2,0c-0.1,0-0.1,0-0.2,0c0,0-0.1,0-0.1,0c-0.1,0-0.1,0-0.1,0.1
		c0,0.1-0.1,0.1-0.1,0.2c0,0-0.1,0.1,0,0.1c0,0,0,0,0,0c0,0.1,0.1,0.1,0.1,0.2c0,0,0,0,0,0C152.5,1.6,152.5,1.6,152.6,1.6"/>
	<path class="st3" d="M151.1,2.9c-0.1,0-0.1,0-0.2,0c0,0,0,0,0,0c0,0,0,0,0,0c-0.1,0-0.2,0-0.2,0.1c0,0-0.1,0-0.1,0
		c-0.1,0-0.2,0-0.2,0c0,0-0.1,0-0.1,0c-0.1,0-0.2,0-0.2,0c0,0,0,0,0,0c-0.1-0.1-0.2-0.1-0.2-0.2c0,0,0,0,0,0c0-0.1,0-0.2,0-0.3
		c0,0,0,0,0-0.1c0-0.1,0-0.2,0-0.2c0-0.1,0-0.2,0-0.2c0-0.1,0-0.2,0-0.3c0,0,0-0.1,0-0.1l0,0c-0.1,0,0,0,0-0.1c0,0,0,0,0-0.1
		c0,0,0-0.1,0-0.1c0,0,0-0.1,0-0.1c0.1,0,0.1-0.1,0.2-0.1c0.1,0,0.2-0.1,0.2-0.1c0,0,0,0,0,0c0,0,0,0,0,0c0,0,0,0,0,0c0,0,0,0,0,0
		c0,0,0,0.1,0,0.2c0,0,0,0-0.1,0c0,0.1-0.1,0.1-0.1,0.2c0,0,0,0.1,0,0.1c0,0.1,0.1,0.2,0.2,0.2c0.1,0,0.2,0,0.2,0c0,0,0,0,0.1,0
		c0,0,0,0,0,0c0,0,0.1,0,0.1,0c0.1,0,0.1,0.1,0.1,0.1c0,0.1-0.1,0.1-0.1,0.1c0,0-0.1,0-0.1,0c-0.1,0-0.2,0-0.3,0c0,0-0.1,0-0.1,0
		c-0.1,0-0.1,0-0.1,0.1c-0.1,0.1-0.1,0.1-0.1,0.2c0,0,0,0,0,0c0,0,0.1,0.1,0.1,0.1c0,0,0.1,0,0.1,0c0.1,0,0.2,0,0.2,0
		c0.1,0,0.2,0,0.3,0c0.1,0,0.1-0.1,0.2-0.1c0,0,0,0,0.1,0c0,0,0,0,0,0c0-0.1,0.1-0.1,0-0.2c0,0,0-0.1,0-0.1c0,0,0-0.1,0-0.1
		c0,0,0-0.1,0.1-0.2c0,0,0-0.1,0-0.1c0-0.1,0-0.1,0-0.2c0,0,0-0.1,0-0.1c0,0-0.1-0.1-0.1-0.1c0,0-0.1,0-0.1,0c0,0-0.1,0-0.1,0
		c0,0-0.1,0-0.1,0c0,0,0-0.1,0-0.1c0,0,0-0.1,0.1-0.1c0.1,0,0.1-0.1,0.2-0.1c0,0,0,0,0,0c0,0,0.1,0,0.1,0c0,0,0.1,0,0.1,0
		c0,0,0,0,0,0c0.1,0,0.2,0,0.3,0c0,0,0,0,0.1,0c0,0,0.1,0.1,0.1,0.1c0,0,0.1,0.1,0,0.1c0,0,0,0,0,0c0,0,0,0.1,0,0.1c0,0,0,0.1,0,0.1
		c0,0,0,0.1,0,0.1c0,0.1,0,0.2,0,0.2c0,0,0,0.1,0,0.1c0,0,0,0,0,0.1c0,0.1,0,0.2,0,0.3c0,0,0,0.1,0,0.1c0,0,0,0.1,0,0.1
		c0,0.1,0,0.1-0.1,0.1c0,0,0,0,0,0c0,0-0.1,0.1-0.1,0.1C151.2,2.9,151.2,2.9,151.1,2.9L151.1,2.9z"/>
	<path class="st3" d="M153.6,6c0,0.1,0,0.2,0,0.2c0,0,0,0,0,0c0,0.1,0,0.1-0.1,0.2c0,0,0,0,0,0c0,0,0,0,0,0c0,0,0,0,0,0
		c0,0-0.1,0-0.1,0c0,0,0,0-0.1,0c0,0,0,0-0.1,0c-0.1,0-0.2,0-0.2,0c0,0,0,0-0.1,0c-0.1,0-0.1,0-0.2,0c0,0-0.1,0-0.1,0
		c-0.1,0-0.1,0-0.2,0c-0.1,0-0.2,0-0.3,0l-0.2,0c0,0-0.1,0.1-0.1,0.1c0,0-0.1,0-0.1,0c-0.1,0-0.2,0-0.3,0c-0.1,0-0.1-0.1-0.1-0.2
		c0,0,0-0.1,0-0.1c0,0,0-0.1,0-0.1c0,0,0-0.1,0-0.1c0,0,0-0.1,0-0.1c0-0.1,0-0.2,0-0.3c0,0,0-0.1,0-0.1c0,0,0-0.1,0-0.1
		c0,0,0-0.1,0-0.1c0,0,0-0.1,0-0.1c0,0,0.1-0.1,0.1-0.1c0,0,0,0,0,0c0.1,0,0.1,0,0.2,0c0,0,0.1,0,0.1,0c0,0,0.1,0,0.1,0
		c0,0,0.1,0,0.1,0c0,0,0,0,0.1,0c0.1,0,0.1,0,0.2,0c0,0,0,0,0,0c0,0,0.1,0,0.1,0c0,0,0.1,0,0.1,0c0,0,0.1,0,0.1,0c0,0,0.1,0,0.1,0
		c0,0,0.1,0,0.1,0c0,0,0.1,0,0.1,0c0.1,0,0.1,0,0.2,0c0,0,0.1,0,0.1,0c0,0,0.1,0,0.1,0c0,0,0,0,0.1,0c0,0,0,0,0,0
		c0,0.1,0.1,0.1,0.2,0.2c0,0,0,0,0,0c0,0,0,0.1,0,0.1c0,0.1,0,0.1,0,0.2C153.6,5.8,153.6,5.9,153.6,6 M152.7,6.3c0.1,0,0.1,0,0.1,0
		c0,0,0,0,0,0c0.1,0,0.2-0.1,0.2-0.2c0,0,0,0,0-0.1c0-0.1,0-0.1,0.1-0.2c0,0,0,0,0,0c0,0,0-0.1,0-0.1c0-0.1,0-0.1-0.1-0.1
		c-0.1,0-0.1,0-0.2,0c-0.1,0-0.2,0-0.3,0c0,0,0,0,0,0c0,0,0,0,0,0c-0.1,0-0.1,0-0.2,0c0,0-0.1,0-0.1,0c0,0,0,0,0,0c0,0-0.1,0-0.1,0
		c0,0-0.1,0-0.1,0.1c0,0-0.1,0.1-0.1,0.1c0,0,0,0,0,0c0,0,0,0.1,0,0.1c0,0,0,0.1,0,0.1c0,0,0,0,0,0c0,0,0,0.1,0,0.2
		c0,0.1,0,0.1,0.1,0.2c0,0,0,0,0.1,0c0.1,0,0.1-0.1,0.2,0c0,0,0.1,0,0.1,0c0,0,0.1,0,0.1,0c0,0,0.1,0,0.1,0c0.1,0,0.1,0,0.2,0
		c0,0,0.1,0,0.1,0C152.6,6.3,152.7,6.3,152.7,6.3"/>
	<path class="st3" d="M148.8,9c0,0.1,0,0.2-0.1,0.3c0,0.1-0.1,0.1-0.1,0.1c0,0-0.1,0-0.1,0c0,0,0,0-0.1,0c0,0-0.1,0-0.1,0
		c0,0,0,0,0,0c0,0,0,0,0,0c-0.1,0-0.1,0-0.2,0c-0.1,0-0.1,0-0.2,0c0,0-0.1,0-0.1,0c0,0-0.1,0-0.1,0c-0.1,0-0.2,0-0.2,0
		c-0.1,0-0.2,0-0.3,0c0,0,0,0-0.1,0c-0.1,0-0.2,0-0.3,0c-0.1,0-0.2,0-0.3-0.1c0,0-0.1,0-0.1-0.1c0,0,0-0.1,0-0.2
		c0-0.1,0-0.2,0.1-0.3c0-0.1,0.1-0.1,0.1-0.2c0,0,0.1,0,0.1,0c0.1,0,0.1,0,0.2,0c0,0,0,0,0.1,0c0.1,0,0.1,0,0.2,0c0,0,0.1,0,0.1,0
		c0.1,0,0.2,0,0.2-0.1c0,0,0.1,0,0.1,0c0.1,0,0.2,0,0.2,0c0,0,0,0,0.1,0c0.1,0,0.1,0.1,0.2,0c0,0,0,0,0,0c0,0,0,0,0.1,0
		c0,0,0,0,0.1,0c0.1,0,0.1,0,0.2,0c0.1,0,0.2,0,0.2,0.1c0,0,0.1,0.1,0.1,0.1c0,0.1,0.1,0.1,0,0.1C148.8,8.9,148.8,8.9,148.8,9
		 M147.9,9.1C147.9,9.1,147.9,9.1,147.9,9.1c0.2-0.1,0.2,0,0.3-0.1c0,0,0,0,0,0c0,0,0.1-0.1,0.1-0.1c0,0,0-0.1,0-0.1
		c0,0-0.1-0.1-0.1-0.1c0,0-0.1,0-0.1,0c-0.1-0.1-0.2,0-0.3-0.1c0,0,0,0-0.1,0c0,0-0.1,0-0.1,0c-0.1,0-0.2,0-0.2,0c0,0,0,0,0,0
		c0,0,0,0,0,0c0,0-0.1,0-0.1,0c-0.1,0-0.2,0.1-0.1,0.2c0,0,0.1,0.1,0.1,0.1c0.1,0,0.1,0.1,0.2,0c0.1,0,0.1,0,0.2,0
		c0,0,0.1,0.1,0.2,0c0,0,0.1,0,0.1,0C147.8,9.1,147.8,9.1,147.9,9.1"/>
	<path class="st3" d="M153.6,4.5c0,0-0.1,0-0.1,0c0,0-0.1,0-0.1,0c0,0,0,0-0.1,0c0,0-0.1,0-0.1,0c0,0,0,0,0,0c0,0,0,0-0.1,0
		c0,0-0.1,0-0.1,0c-0.1,0-0.1,0-0.2,0c0,0-0.1,0-0.1,0c0,0,0,0,0,0c0,0,0,0-0.1,0c0,0,0,0-0.1,0c0,0,0,0-0.1,0c0,0-0.1,0-0.1,0
		c0,0-0.1,0-0.1,0c-0.1,0-0.2,0-0.3,0c-0.1,0-0.2,0-0.2,0c0,0,0,0,0,0c0,0-0.1,0.1-0.1,0c0,0-0.1,0-0.1,0c-0.1,0-0.1,0-0.2,0
		c0,0,0,0,0,0c0,0-0.1,0.1-0.1,0.1c0,0-0.1,0-0.1,0.1c0,0-0.1,0-0.1,0.1c0,0.1-0.1,0.1-0.1,0.1c0,0-0.1,0-0.1,0c0,0-0.1,0-0.2-0.1
		c0,0,0-0.1-0.1-0.1c0,0,0-0.1,0-0.1c0,0,0-0.1,0.1-0.1c0,0,0,0,0,0c0,0,0.1,0,0.1,0c0.1,0,0.1,0,0.2,0c0,0,0.1,0,0.1,0
		c0.1,0,0.2,0,0.3,0c0,0,0,0,0.1,0c0.1,0,0.1,0,0.2,0c0,0,0.1,0,0.1,0c0,0,0,0,0,0c0.1,0,0.1,0,0.2,0c0,0,0.1,0,0.1,0
		c0.1,0,0.2,0,0.3,0c0,0,0.1,0,0.1,0c0,0,0.1,0,0.1,0c0,0,0.1,0,0.1,0c0,0,0.1,0,0.1,0c0.1,0,0.1,0,0.2,0c0.1,0.1,0.1,0,0.2,0
		c0,0,0.1,0,0.1,0c0,0,0.1,0,0.2,0c0.1,0,0.2,0,0.3,0c0.1,0,0.2,0,0.2,0c0,0,0,0,0,0c0,0.1,0.2,0.1,0.2,0.1c0,0,0,0.1,0,0.1
		c0,0,0,0-0.1,0C153.8,4.5,153.7,4.5,153.6,4.5"/>
	<path class="st3" d="M149.4,9.7L149.4,9.7c0-0.2,0-0.2,0.1-0.2c0.1,0,0.1,0,0.2,0c0,0,0.1,0,0.1,0c0.1,0,0.1,0,0.2-0.1
		c0,0,0.1,0,0.1,0c0,0,0,0,0.1-0.1c0.1-0.1,0.2-0.1,0.2-0.2c0,0,0.2-0.1,0.2-0.1c0.1,0,0.1,0.1,0.1,0.2c0,0,0,0.1,0,0.1
		c0,0,0,0.1,0,0.1c0,0,0,0-0.1,0.1c0,0,0,0.1,0,0.1c-0.1,0.1-0.1,0.2-0.2,0.2c-0.1,0-0.1,0.1-0.1,0.1c0,0,0,0-0.1,0c0,0,0,0-0.1,0.1
		c0,0,0,0-0.1,0c0,0-0.1,0-0.1,0c-0.1,0-0.1,0-0.2,0c0,0,0,0,0,0c0,0,0,0,0,0C149.4,9.8,149.4,9.7,149.4,9.7"/>
	<path class="st3" d="M145.3,7.5L145.3,7.5c-0.1,0-0.2,0-0.3-0.1c0,0,0,0-0.1-0.1c-0.1,0-0.1-0.1-0.1-0.2c0,0,0-0.1,0-0.1
		c0-0.1,0-0.1,0.1-0.1c0.1,0,0.1,0,0.1,0c0.1,0,0.1,0,0.1,0c0,0,0,0,0.1,0c0,0,0.1,0,0.1,0c0,0,0.1,0,0.1,0c0.1,0,0.1,0,0.2,0.1
		c0,0,0,0.1,0.1,0.1c0,0,0,0,0,0c0,0.1,0,0.1,0,0.2c0,0,0,0.1-0.1,0.1c-0.1,0-0.1,0.1-0.2,0.1C145.5,7.5,145.4,7.5,145.3,7.5
		C145.3,7.5,145.3,7.5,145.3,7.5"/>
	<path class="st3" d="M149.4,8.2c0,0,0-0.1,0-0.1c0,0,0.1-0.1,0.1-0.1c0,0,0.1,0,0.1,0c0,0,0,0,0,0c0.1,0,0.1,0,0.2,0
		c0,0,0.1,0,0.1,0c0,0,0.1,0,0.1,0.1c0,0,0,0,0,0c0.1,0,0.1,0.1,0.1,0.2c0,0.1,0,0.1-0.1,0.1c0,0,0,0,0,0c0,0-0.1,0-0.2,0
		c0,0-0.1,0-0.1,0c-0.1,0-0.2,0-0.2-0.1c0,0,0,0,0,0C149.5,8.4,149.4,8.3,149.4,8.2"/>
	<path class="st3" d="M150,7.1c0.1,0,0.1,0,0.2,0c0.1,0,0.1,0.1,0.2,0.2c0,0,0,0,0,0.1c0,0,0,0.1,0,0.1c0,0,0,0.1,0,0.1
		c0,0-0.1,0.1-0.1,0.1c-0.1,0-0.2,0-0.2,0c-0.1,0-0.1,0-0.2-0.1c0,0,0,0,0,0c0-0.1,0-0.1-0.1-0.2c0-0.1,0-0.1,0.1-0.1
		C149.8,7.1,149.8,7.1,150,7.1C149.9,7.1,150,7.1,150,7.1"/>
	<path class="st3" d="M147.8,2.3c0,0,0.1,0,0.1,0c0,0,0,0,0,0c0.1,0,0.2,0,0.3,0c0.1,0,0.1,0,0.2,0c0.1,0,0.1,0.1,0.1,0.1
		c0,0.1,0,0.1-0.1,0.1c-0.1,0-0.1,0-0.2,0c-0.1,0-0.1,0-0.2,0c0,0,0,0,0,0c-0.1,0-0.2,0-0.4,0.1c0,0-0.1,0-0.1-0.1c0,0,0-0.1,0-0.1
		c0,0,0-0.1,0.1-0.1C147.7,2.4,147.8,2.4,147.8,2.3"/>
	<path class="st3" d="M147.9,1.9c0,0,0.1,0,0.1,0c0,0,0,0,0,0c0,0,0,0,0.1,0c0,0,0,0,0.1,0c0,0,0,0,0,0c0.1,0,0.1,0,0.2,0
		c0,0,0,0.1,0.1,0.1c0,0,0,0,0,0.1c0,0,0,0.1,0,0.1c0,0,0,0,0,0c0,0.1-0.1,0.1-0.1,0.1c-0.1,0-0.1,0-0.2,0c0,0,0,0,0,0
		c0,0-0.1,0-0.1,0c-0.1,0-0.1,0-0.2,0c0,0-0.1,0-0.1,0c0,0-0.1,0-0.1-0.1c0,0,0,0,0-0.1c0,0,0.1,0,0.1,0c0,0,0.1,0,0.1-0.1
		C147.9,1.9,147.9,1.9,147.9,1.9"/>
	<path class="st3" d="M146.1,6.1c0,0,0,0.1,0,0.1c0,0,0,0,0,0c0,0-0.1,0-0.1,0c0,0,0,0,0,0c0,0-0.1,0.1-0.1,0c0,0-0.1,0-0.1,0
		c-0.1,0-0.1,0-0.2,0c-0.1,0-0.1,0-0.2,0c0,0-0.1-0.1-0.1-0.1c0,0,0,0,0,0c0,0,0-0.1,0.1-0.1c0,0,0.1-0.1,0.1-0.1
		c0.1,0,0.1-0.1,0.2,0c0,0,0,0,0,0c0.1,0,0.2,0,0.3,0C146.1,6,146.1,6.1,146.1,6.1"/>
	<path class="st3" d="M152.3,8.9c0.1,0,0.1,0,0.2,0c0,0,0,0,0,0c0.1,0,0.1,0,0.2,0.1c0,0,0.1,0,0.1,0c0.1,0,0.1,0,0.2,0.1
		c0,0,0.1,0,0.1,0.1c0,0,0.1,0,0,0.1c0,0.1,0,0.1-0.1,0.1c0,0,0,0,0,0c0,0,0,0,0,0c0,0-0.1,0-0.1,0c0,0,0,0-0.1,0c0,0-0.1,0-0.1,0
		c0,0-0.1-0.1-0.2-0.1c0,0-0.1,0-0.1-0.1c-0.1,0-0.1-0.1-0.2,0c-0.1,0-0.1,0.1-0.2,0.1c-0.1,0-0.1,0.1-0.2,0.1c0,0,0,0,0,0
		c-0.1,0-0.1,0-0.1,0c0,0-0.1,0-0.1,0c0,0,0,0-0.1,0c-0.1,0-0.1-0.1-0.1-0.1c0,0,0-0.1,0-0.1c0,0,0.1-0.1,0.2-0.1
		c0.1,0,0.1,0,0.2-0.1c0,0,0,0,0.1,0c0,0,0,0,0,0c0.1,0,0.2-0.1,0.2-0.1C152.1,8.9,152.2,8.9,152.3,8.9"/>
</g>
</svg>
